<svg width="101" height="100" viewBox="0 0 101 100" fill="none" xmlns="http://www.w3.org/2000/svg">
<circle cx="50.5001" cy="50" r="48.5" fill="white" stroke="#003366" style="fill:white;fill-opacity:1;stroke:#003366;stroke:color(display-p3 0.0000 0.2000 0.4000);stroke-opacity:1;" stroke-width="3"/>
<g clip-path="url(#clip0_4_207)">
<path d="M73.0452 44.3446L53.8151 27.6785C53.4332 27.3476 52.9106 27.2724 52.4509 27.4822C52.2027 27.5956 52.0053 27.7773 51.8763 28.0001H50.1239C49.9947 27.7774 49.7974 27.5956 49.5492 27.4822C49.0896 27.2726 48.5669 27.3476 48.1851 27.6785L41.2894 33.6548C41.0143 33.8932 40.9845 34.3096 41.223 34.5847C41.4614 34.8598 41.8778 34.8895 42.1529 34.6511L48.9758 28.7377V30.8876C48.9758 31.0181 48.9182 31.1383 48.8241 31.2198C44.6761 34.8148 33.9639 44.0987 29.8185 47.6914V45.3409L39.8288 36.6654C40.1039 36.4269 40.1337 36.0106 39.8952 35.7355C39.6568 35.4604 39.2404 35.4306 38.9653 35.6691L28.955 44.3446C28.666 44.5952 28.5001 44.9583 28.5001 45.3409V47.6914C28.5001 48.214 28.7954 48.6736 29.2709 48.8907C29.7462 49.1078 30.2869 49.0301 30.682 48.6878L31.2303 48.2125V70.3166C31.2303 71.0435 31.8217 71.6349 32.5486 71.6349H69.4517C70.1786 71.6349 70.7701 71.0435 70.7701 70.3166V48.2125L71.3183 48.6878C71.7145 49.0312 72.2558 49.1071 72.7294 48.8907C73.2048 48.6736 73.5002 48.2141 73.5002 47.6914V45.3409C73.5001 44.9583 73.3343 44.5952 73.0452 44.3446ZM50.2943 30.7301V29.3184H51.706V30.7301H50.2943ZM49.6877 32.216C49.748 32.1637 49.8043 32.1077 49.8564 32.0486H52.1438C52.1959 32.1077 52.2522 32.1637 52.3126 32.216L55.3233 34.8253H46.677L49.6877 32.216ZM64.3609 44.3807C63.9968 44.3807 63.7017 44.6757 63.7017 45.0399C63.7017 45.404 63.9968 45.699 64.3609 45.699H65.3565V66.2215H53.0243V45.699H61.2846C61.6488 45.699 61.9438 45.404 61.9438 45.0399C61.9438 44.6757 61.6488 44.3807 61.2846 44.3807H35.6516L37.2805 42.969H64.7197L66.3486 44.3807H64.3609ZM50.2943 66.2215V45.699H51.706V66.2215H50.2943ZM38.8017 41.6505L42.0057 38.8737H59.9946L63.1985 41.6505H38.8017ZM43.5269 37.5554L45.1557 36.1438H56.8444L58.4734 37.5554H43.5269ZM34.1304 45.699H35.3254V58.8631C35.3254 59.2273 35.6204 59.5223 35.9845 59.5223C36.3487 59.5223 36.6437 59.2273 36.6437 58.8631V45.699H48.9758V66.2215H36.6437V61.9393C36.6437 61.5752 36.3487 61.2801 35.9845 61.2801C35.6204 61.2801 35.3254 61.5752 35.3254 61.9393V66.2215H32.5485V47.07L34.1304 45.699ZM32.5485 67.5399H33.9602V70.3167H32.5485V67.5399ZM35.2787 67.5399H66.7216V70.3167H35.2787V67.5399ZM68.0399 70.3167V67.5399H69.4516V70.3167H68.0399ZM69.4517 66.2215H66.6749V45.699H67.8699L69.4517 47.07V66.2215ZM72.1818 47.6914C66.4653 42.7372 58.8706 36.155 53.176 31.2198C53.0816 31.1379 53.0243 31.0176 53.0243 30.8876V28.7377L72.1818 45.3409V47.6914Z" fill="#003366" style="fill:#003366;fill:color(display-p3 0.0000 0.2000 0.4000);fill-opacity:1;"/>
</g>
<defs>
<clipPath id="clip0_4_207">
<rect width="45" height="45" fill="white" style="fill:white;fill-opacity:1;" transform="translate(28.5001 27)"/>
</clipPath>
</defs>
</svg>
