<svg width="101" height="100" viewBox="0 0 101 100" fill="none" xmlns="http://www.w3.org/2000/svg">
<circle cx="50.5" cy="50" r="48.5" fill="white" stroke="#003366" style="fill:white;fill-opacity:1;stroke:#003366;stroke:color(display-p3 0.0000 0.2000 0.4000);stroke-opacity:1;" stroke-width="3"/>
<path d="M69.1212 31.1263C69.0595 30.9781 68.9553 30.8514 68.8217 30.7624C68.6881 30.6733 68.5311 30.6258 68.3705 30.6259C68.21 30.626 68.0531 30.6736 67.9196 30.7628C67.7861 30.8521 67.682 30.9788 67.6205 31.1271L66.3091 34.2999L63.1322 35.6194C62.984 35.6812 62.8574 35.7855 62.7684 35.9191C62.6794 36.0528 62.632 36.2098 62.6322 36.3703C62.6324 36.5309 62.6801 36.6878 62.7694 36.8212C62.8587 36.9547 62.9855 37.0587 63.1339 37.1201L66.3083 38.4323L67.6205 41.6068C67.6817 41.7552 67.7856 41.8821 67.919 41.9714C68.0524 42.0608 68.2093 42.1085 68.3699 42.1087C68.5304 42.1089 68.6874 42.0614 68.821 41.9724C68.9546 41.8833 69.0588 41.7566 69.1203 41.6084L70.4398 38.4315L73.6127 37.1193C73.7612 37.0579 73.8882 36.9539 73.9776 36.8203C74.067 36.6867 74.1148 36.5296 74.1149 36.3688C74.115 36.2081 74.0674 36.0509 73.9781 35.9173C73.8889 35.7836 73.762 35.6794 73.6135 35.6178L70.439 34.3008L69.1212 31.1247V31.1263ZM69.5071 37.06C69.4082 37.101 69.3183 37.161 69.2426 37.2367C69.1669 37.3124 69.1069 37.4023 69.0659 37.5012L68.3729 39.1758L67.6798 37.5004C67.6391 37.4015 67.5792 37.3118 67.5036 37.2362C67.428 37.1606 67.3382 37.1007 67.2394 37.06L65.5648 36.3678L67.2264 35.6788C67.3281 35.6389 67.4206 35.5789 67.4985 35.5024C67.5764 35.4259 67.6381 35.3344 67.6798 35.2335L68.372 33.5606L69.0659 35.2343C69.1488 35.4334 69.3064 35.591 69.5055 35.6739L71.1792 36.3678L69.5063 37.0592L69.5071 37.06ZM27.9282 36.3702C27.9282 36.6984 28.1265 36.995 28.4303 37.1201L31.604 38.4323L32.9162 41.6068C32.9774 41.7552 33.0813 41.8821 33.2147 41.9714C33.3481 42.0608 33.505 42.1085 33.6656 42.1087C33.8261 42.1089 33.9831 42.0614 34.1167 41.9724C34.2503 41.8833 34.3545 41.7566 34.416 41.6084L35.7355 38.4315L38.9092 37.1193C39.0577 37.0579 39.1847 36.9539 39.2741 36.8203C39.3635 36.6867 39.4113 36.5296 39.4114 36.3688C39.4115 36.2081 39.3639 36.0509 39.2746 35.9173C39.1854 35.7836 39.0585 35.6794 38.91 35.6178L35.7347 34.3008L34.4168 31.1247C34.3552 30.9764 34.251 30.8498 34.1174 30.7607C33.9838 30.6717 33.8268 30.6242 33.6662 30.6243C33.5057 30.6244 33.3487 30.672 33.2152 30.7612C33.0817 30.8504 32.9777 30.9772 32.9162 31.1255L31.604 34.2991L28.4287 35.6178C28.2804 35.6795 28.1538 35.7837 28.0647 35.9173C27.9756 36.0509 27.9281 36.208 27.9282 36.3686V36.3702ZM32.527 35.6779C32.628 35.6378 32.7198 35.5778 32.7972 35.5014C32.8745 35.4251 32.9357 35.334 32.9771 35.2335L33.6693 33.5606L34.3632 35.2343C34.4461 35.4334 34.6037 35.591 34.8028 35.6739L36.4765 36.3678L34.8036 37.0592C34.7047 37.1001 34.6148 37.1602 34.5391 37.2359C34.4634 37.3116 34.4034 37.4015 34.3624 37.5004L33.6693 39.1749L32.9763 37.4996C32.9356 37.4007 32.8757 37.3109 32.8001 37.2354C32.7245 37.1598 32.6347 37.0999 32.5359 37.0592L30.8622 36.3669L32.5262 35.6771L32.527 35.6779ZM48.0059 45.9195H48.9655C49.181 45.9195 49.3876 45.8339 49.54 45.6815C49.6924 45.5292 49.778 45.3225 49.778 45.107C49.778 44.8915 49.6924 44.6848 49.54 44.5325C49.3876 44.3801 49.181 44.2945 48.9655 44.2945H48.0059C47.7904 44.2945 47.5838 44.3801 47.4314 44.5325C47.279 44.6848 47.1934 44.8915 47.1934 45.107C47.1934 45.3225 47.279 45.5292 47.4314 45.6815C47.5838 45.8339 47.7904 45.9195 48.0059 45.9195Z" fill="#003366" style="fill:#003366;fill:color(display-p3 0.0000 0.2000 0.4000);fill-opacity:1;"/>
<path d="M74.0733 74.5033C74.0733 73.6566 73.3843 72.9676 72.5377 72.9676H64.9473V49.8024H66.2961C66.5116 49.8024 66.7183 49.7168 66.8706 49.5645C67.023 49.4121 67.1086 49.2054 67.1086 48.9899V42.5078C67.1086 42.2923 67.023 42.0857 66.8706 41.9333C66.7183 41.7809 66.5116 41.6953 66.2961 41.6953H35.7055C35.49 41.6953 35.2833 41.7809 35.1309 41.9333C34.9786 42.0857 34.893 42.2923 34.893 42.5078V48.9899C34.893 49.2054 34.9786 49.4121 35.1309 49.5645C35.2833 49.7168 35.49 49.8024 35.7055 49.8024H37.0542V72.9684H29.4638C28.6172 72.9684 27.9282 73.6574 27.9282 74.5041V77.5152C27.9282 78.3618 28.6172 79.0508 29.4638 79.0508H72.5385C73.3852 79.0508 74.0742 78.3618 74.0742 77.5152V74.5041L74.0733 74.5033ZM58.0752 72.9676V66.3287H61.014V72.9676H58.0752ZM45.5522 72.9676V66.3287H56.4502V72.9676H45.5522ZM38.6792 58.0656H50.1891V64.7037H38.6792V58.0656ZM56.4502 49.8016V56.4406H45.5522V49.8016H56.4502ZM63.3232 64.7037H62.639V61.3846C62.639 61.1691 62.5534 60.9625 62.4011 60.8101C62.2487 60.6577 62.042 60.5721 61.8265 60.5721C61.611 60.5721 61.4044 60.6577 61.252 60.8101C61.0996 60.9625 61.014 61.1691 61.014 61.3846V64.7037H51.8141V58.0656H63.3232V64.7037ZM62.639 66.3287H63.3232V72.9676H62.639V66.3287ZM63.3232 56.4406H58.0752V49.8016H63.3232V56.4406ZM36.518 43.3203H65.4844V44.2953H51.7304C51.5149 44.2953 51.3083 44.3809 51.1559 44.5333C51.0035 44.6857 50.9179 44.8923 50.9179 45.1078C50.9179 45.3233 51.0035 45.53 51.1559 45.6823C51.3083 45.8347 51.5149 45.9203 51.7304 45.9203H65.4844V48.1774H36.518V43.3203ZM43.9272 49.8024V56.4414H38.6792V49.8024H43.9272ZM38.6792 66.3295H43.9272V72.9684H38.6792V66.3295ZM72.4483 77.425H29.5532V74.5934H72.4483V77.425Z" fill="#003366" style="fill:#003366;fill:color(display-p3 0.0000 0.2000 0.4000);fill-opacity:1;"/>
<path d="M74.7144 61.2652C74.7144 61.0497 74.6288 60.843 74.4764 60.6906C74.3241 60.5383 74.1174 60.4527 73.9019 60.4527H72.7758V59.3273C72.7758 59.1119 72.6902 58.9052 72.5378 58.7528C72.3854 58.6005 72.1788 58.5148 71.9633 58.5148C71.7478 58.5148 71.5411 58.6005 71.3888 58.7528C71.2364 58.9052 71.1508 59.1119 71.1508 59.3273V60.4527H70.0255C69.81 60.4527 69.6033 60.5383 69.451 60.6906C69.2986 60.843 69.213 61.0497 69.213 61.2652C69.213 61.4806 69.2986 61.6873 69.451 61.8397C69.6033 61.9921 69.81 62.0777 70.0255 62.0777H71.1508V63.203C71.1508 63.4185 71.2364 63.6251 71.3888 63.7775C71.5411 63.9299 71.7478 64.0155 71.9633 64.0155C72.1788 64.0155 72.3854 63.9299 72.5378 63.7775C72.6902 63.6251 72.7758 63.4185 72.7758 63.203V62.0777H73.9019C74.1174 62.0777 74.3241 61.9921 74.4764 61.8397C74.6288 61.6873 74.7144 61.4806 74.7144 61.2652ZM49.921 36.6683C50.1365 36.6683 50.3431 36.5827 50.4955 36.4304C50.6479 36.278 50.7335 36.0713 50.7335 35.8558V34.7305H51.8596C52.0751 34.7305 52.2817 34.6449 52.4341 34.4926C52.5865 34.3402 52.6721 34.1335 52.6721 33.918C52.6721 33.7025 52.5865 33.4959 52.4341 33.3435C52.2817 33.1911 52.0751 33.1055 51.8596 33.1055H50.7335V31.9802C50.7335 31.7647 50.6479 31.5581 50.4955 31.4057C50.3431 31.2533 50.1365 31.1677 49.921 31.1677C49.7055 31.1677 49.4988 31.2533 49.3465 31.4057C49.1941 31.5581 49.1085 31.7647 49.1085 31.9802V33.1055H47.9823C47.7669 33.1055 47.5602 33.1911 47.4078 33.3435C47.2555 33.4959 47.1698 33.7025 47.1698 33.918C47.1698 34.1335 47.2555 34.3402 47.4078 34.4926C47.5602 34.6449 47.7669 34.7305 47.9823 34.7305H49.1085V35.8558C49.1085 36.0713 49.1941 36.278 49.3465 36.4304C49.4988 36.5827 49.7055 36.6683 49.921 36.6683ZM28.7407 56.1277H29.866V57.2538C29.866 57.4693 29.9516 57.676 30.104 57.8284C30.2564 57.9807 30.463 58.0663 30.6785 58.0663C30.894 58.0663 31.1007 57.9807 31.2531 57.8284C31.4054 57.676 31.491 57.4693 31.491 57.2538V56.1277H32.6172C32.8326 56.1277 33.0393 56.0421 33.1917 55.8897C33.3441 55.7374 33.4297 55.5307 33.4297 55.3152C33.4297 55.0997 33.3441 54.8931 33.1917 54.7407C33.0393 54.5883 32.8326 54.5027 32.6172 54.5027H31.491V53.3774C31.491 53.1619 31.4054 52.9553 31.2531 52.8029C31.1007 52.6505 30.894 52.5649 30.6785 52.5649C30.463 52.5649 30.2564 52.6505 30.104 52.8029C29.9516 52.9553 29.866 53.1619 29.866 53.3774V54.5027H28.7407C28.5252 54.5027 28.3186 54.5883 28.1662 54.7407C28.0138 54.8931 27.9282 55.0997 27.9282 55.3152C27.9282 55.5307 28.0138 55.7374 28.1662 55.8897C28.3186 56.0421 28.5252 56.1277 28.7407 56.1277Z" fill="#003366" style="fill:#003366;fill:color(display-p3 0.0000 0.2000 0.4000);fill-opacity:1;"/>
</svg>
