<svg width="101" height="100" viewBox="0 0 101 100" fill="none" xmlns="http://www.w3.org/2000/svg">
<circle cx="50.5" cy="50" r="48.5" fill="white" stroke="#003366" style="fill:white;fill-opacity:1;stroke:#003366;stroke:color(display-p3 0.0000 0.2000 0.4000);stroke-opacity:1;" stroke-width="3"/>
<g clip-path="url(#clip0_33_355)">
<path d="M73.0451 44.3446L53.815 27.6785C53.4331 27.3476 52.9105 27.2724 52.4508 27.4822C52.2026 27.5956 52.0052 27.7773 51.8762 28.0001H50.1237C49.9946 27.7774 49.7973 27.5956 49.5491 27.4822C49.0894 27.2726 48.5667 27.3476 48.1849 27.6785L41.2893 33.6548C41.0142 33.8932 40.9844 34.3096 41.2229 34.5847C41.4613 34.8598 41.8777 34.8895 42.1528 34.6511L48.9757 28.7377V30.8876C48.9757 31.0181 48.918 31.1383 48.824 31.2198C44.676 34.8148 33.9638 44.0987 29.8184 47.6914V45.3409L39.8287 36.6654C40.1038 36.4269 40.1336 36.0106 39.8951 35.7355C39.6567 35.4604 39.2403 35.4306 38.9652 35.6691L28.9548 44.3446C28.6658 44.5952 28.5 44.9583 28.5 45.3409V47.6914C28.5 48.214 28.7953 48.6736 29.2708 48.8907C29.7461 49.1078 30.2868 49.0301 30.6819 48.6878L31.2301 48.2125V70.3166C31.2301 71.0435 31.8216 71.6349 32.5485 71.6349H69.4516C70.1785 71.6349 70.7699 71.0435 70.7699 70.3166V48.2125L71.3182 48.6878C71.7144 49.0312 72.2556 49.1071 72.7293 48.8907C73.2047 48.6736 73.5001 48.2141 73.5001 47.6914V45.3409C73.5 44.9583 73.3342 44.5952 73.0451 44.3446ZM50.2941 30.7301V29.3184H51.7059V30.7301H50.2941ZM49.6875 32.216C49.7479 32.1637 49.8042 32.1077 49.8563 32.0486H52.1437C52.1958 32.1077 52.2521 32.1637 52.3125 32.216L55.3232 34.8253H46.6768L49.6875 32.216ZM64.3608 44.3807C63.9967 44.3807 63.7016 44.6757 63.7016 45.0399C63.7016 45.404 63.9967 45.699 64.3608 45.699H65.3564V66.2215H53.0242V45.699H61.2845C61.6487 45.699 61.9437 45.404 61.9437 45.0399C61.9437 44.6757 61.6487 44.3807 61.2845 44.3807H35.6515L37.2804 42.969H64.7196L66.3485 44.3807H64.3608ZM50.2941 66.2215V45.699H51.7059V66.2215H50.2941ZM38.8016 41.6505L42.0055 38.8737H59.9945L63.1984 41.6505H38.8016ZM43.5267 37.5554L45.1556 36.1438H56.8443L58.4733 37.5554H43.5267ZM34.1303 45.699H35.3252V58.8631C35.3252 59.2273 35.6203 59.5223 35.9844 59.5223C36.3485 59.5223 36.6436 59.2273 36.6436 58.8631V45.699H48.9757V66.2215H36.6436V61.9393C36.6436 61.5752 36.3485 61.2801 35.9844 61.2801C35.6203 61.2801 35.3252 61.5752 35.3252 61.9393V66.2215H32.5484V47.07L34.1303 45.699ZM32.5484 67.5399H33.9601V70.3167H32.5484V67.5399ZM35.2786 67.5399H66.7214V70.3167H35.2786V67.5399ZM68.0398 70.3167V67.5399H69.4515V70.3167H68.0398ZM69.4516 66.2215H66.6748V45.699H67.8697L69.4516 47.07V66.2215ZM72.1816 47.6914C66.4651 42.7372 58.8704 36.155 53.1759 31.2198C53.0815 31.1379 53.0242 31.0176 53.0242 30.8876V28.7377L72.1816 45.3409V47.6914Z" fill="#003366" style="fill:#003366;fill:color(display-p3 0.0000 0.2000 0.4000);fill-opacity:1;"/>
</g>
<defs>
<clipPath id="clip0_33_355">
<rect width="45" height="45" fill="white" style="fill:white;fill-opacity:1;" transform="translate(28.5 27)"/>
</clipPath>
</defs>
</svg>
