<svg width="23" height="22" viewBox="0 0 23 22" fill="none" xmlns="http://www.w3.org/2000/svg">
<g clip-path="url(#clip0_1_2040)">
<path d="M17.3111 18.9351H4.82412C4.06019 18.9356 3.3277 19.2393 2.78753 19.7795C2.24735 20.3196 1.94365 21.0521 1.94312 21.8161H20.1931C20.1931 21.4376 20.1186 21.0629 19.9737 20.7133C19.8289 20.3637 19.6166 20.0461 19.3489 19.7785C19.0813 19.511 18.7636 19.2988 18.4139 19.1541C18.0643 19.0094 17.6895 18.9349 17.3111 18.9351Z" fill="#007EB1"/>
<path d="M11.0681 6.19504C10.3787 6.17261 9.69224 6.29433 9.05262 6.55239C8.41299 6.81045 7.83427 7.19919 7.35348 7.69372C6.87269 8.18825 6.50042 8.77769 6.26048 9.42433C6.02054 10.071 5.91822 10.7606 5.96005 11.449V17.224H16.1761V11.449C16.218 10.7605 16.1158 10.0709 15.8759 9.42416C15.6361 8.77745 15.2638 8.18794 14.783 7.69338C14.3022 7.19881 13.7234 6.81009 13.0837 6.55208C12.444 6.29407 11.7575 6.17246 11.0681 6.19504ZM14.4751 12.595C14.357 12.595 14.2438 12.5482 14.1604 12.4647C14.0769 12.3812 14.0301 12.2681 14.0301 12.15C14.0301 10.55 13.2461 9.08804 12.2051 8.74104C12.1476 8.72417 12.0941 8.6959 12.0478 8.65792C12.0015 8.61994 11.9633 8.57302 11.9355 8.51996C11.9077 8.4669 11.8909 8.40879 11.8861 8.34909C11.8813 8.2894 11.8885 8.22934 11.9074 8.1725C11.9263 8.11566 11.9564 8.06321 11.996 8.01827C12.0356 7.97333 12.0838 7.93682 12.1378 7.91093C12.1918 7.88503 12.2505 7.87028 12.3103 7.86755C12.3701 7.86482 12.4299 7.87417 12.4861 7.89504C13.8961 8.36504 14.9191 10.154 14.9191 12.149C14.9198 12.2079 14.909 12.2663 14.887 12.3209C14.8651 12.3756 14.8325 12.4253 14.7912 12.4672C14.7499 12.5092 14.7007 12.5425 14.6464 12.5653C14.5922 12.5881 14.5339 12.5999 14.4751 12.6V12.595Z" fill="#007EB1"/>
<path d="M3.384 11.7532H0.5C0.367392 11.7532 0.240215 11.7005 0.146447 11.6067C0.0526784 11.513 0 11.3858 0 11.2532C0 11.1206 0.0526784 10.9934 0.146447 10.8996C0.240215 10.8059 0.367392 10.7532 0.5 10.7532H3.384C3.51661 10.7532 3.64379 10.8059 3.73755 10.8996C3.83132 10.9934 3.884 11.1206 3.884 11.2532C3.884 11.3858 3.83132 11.513 3.73755 11.6067C3.64379 11.7005 3.51661 11.7532 3.384 11.7532Z" fill="#007EB1"/>
<path d="M5.26411 6.19509C5.19817 6.19521 5.13285 6.18228 5.07193 6.15705C5.011 6.13182 4.95567 6.09479 4.90911 6.04809L2.98811 4.12609C2.89396 4.03194 2.84106 3.90424 2.84106 3.77109C2.84106 3.63794 2.89396 3.51024 2.98811 3.41609C3.08226 3.32194 3.20996 3.26904 3.34311 3.26904C3.47626 3.26904 3.60396 3.32194 3.69811 3.41609L5.61911 5.33809C5.69032 5.40791 5.73903 5.49744 5.75897 5.59515C5.77891 5.69287 5.76917 5.79432 5.731 5.88646C5.69283 5.9786 5.62798 6.05723 5.54478 6.11222C5.46158 6.16722 5.36384 6.19608 5.26411 6.19509Z" fill="#007EB1"/>
<path d="M11.0681 4.06911C10.9355 4.06911 10.8083 4.01643 10.7146 3.92266C10.6208 3.82889 10.5681 3.70171 10.5681 3.56911V0.683105C10.5681 0.550497 10.6208 0.42332 10.7146 0.329552C10.8083 0.235784 10.9355 0.183105 11.0681 0.183105C11.2007 0.183105 11.3279 0.235784 11.4217 0.329552C11.5154 0.42332 11.5681 0.550497 11.5681 0.683105V3.56711C11.5684 3.63293 11.5556 3.69817 11.5306 3.75906C11.5056 3.81996 11.4688 3.87531 11.4224 3.92195C11.3759 3.96859 11.3207 4.0056 11.2599 4.03085C11.1991 4.05611 11.1339 4.06911 11.0681 4.06911Z" fill="#007EB1"/>
<path d="M16.98 6.08615C16.8805 6.08694 16.783 6.058 16.7 6.00305C16.617 5.9481 16.5523 5.86964 16.5142 5.77771C16.4761 5.68578 16.4663 5.58456 16.486 5.48702C16.5057 5.38947 16.5541 5.30003 16.625 5.23015L18.546 3.30915C18.5926 3.26254 18.648 3.22556 18.7089 3.20033C18.7698 3.17509 18.8351 3.16211 18.901 3.16211C18.9669 3.16211 19.0322 3.17509 19.0931 3.20033C19.154 3.22556 19.2094 3.26254 19.256 3.30915C19.3026 3.35577 19.3396 3.41112 19.3648 3.47203C19.3901 3.53294 19.403 3.59823 19.403 3.66416C19.403 3.73008 19.3901 3.79537 19.3648 3.85628C19.3396 3.91719 19.3026 3.97254 19.256 4.01916L17.335 5.93915C17.2884 5.98586 17.2331 6.02289 17.1722 6.04812C17.1113 6.07335 17.0459 6.08627 16.98 6.08615Z" fill="#007EB1"/>
<path d="M21.634 11.7532H18.752C18.6193 11.7532 18.4922 11.7005 18.3984 11.6067C18.3046 11.513 18.252 11.3858 18.252 11.2532C18.252 11.1206 18.3046 10.9934 18.3984 10.8996C18.4922 10.8059 18.6193 10.7532 18.752 10.7532H21.6329C21.7656 10.7532 21.8927 10.8059 21.9865 10.8996C22.0803 10.9934 22.1329 11.1206 22.1329 11.2532C22.1329 11.3858 22.0803 11.513 21.9865 11.6067C21.8927 11.7005 21.7656 11.7532 21.6329 11.7532H21.634Z" fill="#007EB1"/>
</g>
<defs>
<clipPath id="clip0_1_2040">
<rect width="22.136" height="21.634" fill="white" transform="translate(0 0.183105)"/>
</clipPath>
</defs>
</svg>
