<svg width="21" height="22" viewBox="0 0 21 22" fill="none" xmlns="http://www.w3.org/2000/svg">
<g clip-path="url(#clip0_1_2031)">
<path d="M16.467 15.3079L15.392 20.2969C15.318 20.6368 15.13 20.9412 14.8591 21.1595C14.5882 21.3778 14.2508 21.4969 13.903 21.4969H9.87295C9.24602 21.5118 8.62407 21.3821 8.05529 21.118C7.4865 20.8539 6.98614 20.4624 6.59295 19.9739H5.44995V13.8839H6.23695C7.86091 12.7308 9.03071 11.0463 9.54395 9.1219C9.58461 8.9776 9.6678 8.8489 9.78267 8.75258C9.89755 8.65625 10.0388 8.59677 10.188 8.5819C10.5209 8.55366 10.8558 8.60614 11.1642 8.73489C11.4725 8.86365 11.7453 9.06487 11.9594 9.3215C12.1734 9.57813 12.3224 9.88259 12.3937 10.2091C12.465 10.5355 12.4565 10.8744 12.369 11.1969C12.1512 12.127 11.8246 13.0282 11.396 13.8819H15.315C15.4905 13.882 15.6639 13.9214 15.8223 13.9971C15.9807 14.0729 16.1202 14.1831 16.2305 14.3197C16.3409 14.4563 16.4193 14.6158 16.46 14.7866C16.5007 14.9575 16.5028 15.1352 16.466 15.3069L16.467 15.3079Z" fill="#007EB1"/>
<path d="M10.605 0.626998L11.524 2.488C11.5403 2.52129 11.5645 2.55009 11.5944 2.57188C11.6244 2.59367 11.6593 2.60779 11.696 2.613L13.75 2.913C13.7921 2.91937 13.8316 2.93734 13.864 2.9649C13.8964 2.99246 13.9206 3.02852 13.9336 3.06902C13.9467 3.10952 13.9483 3.15287 13.9381 3.19421C13.9279 3.23554 13.9064 3.27321 13.876 3.303L12.389 4.751C12.3628 4.77662 12.3432 4.80819 12.3319 4.84302C12.3206 4.87784 12.3179 4.91489 12.324 4.951L12.675 6.997C12.6824 7.039 12.6778 7.08223 12.6618 7.12177C12.6458 7.16131 12.6191 7.19558 12.5846 7.22068C12.5501 7.24578 12.5093 7.26071 12.4668 7.26377C12.4242 7.26683 12.3817 7.2579 12.344 7.238L10.51 6.273C10.4773 6.25583 10.4409 6.24686 10.404 6.24686C10.3671 6.24686 10.3307 6.25583 10.298 6.273L8.45999 7.239C8.42227 7.2589 8.37973 7.26783 8.3372 7.26477C8.29466 7.26171 8.25384 7.24678 8.21936 7.22168C8.18489 7.19658 8.15814 7.16231 8.14217 7.12277C8.12619 7.08323 8.12163 7.04 8.12899 6.998L8.47999 4.952C8.48584 4.9159 8.48299 4.87892 8.47168 4.84413C8.46038 4.80935 8.44094 4.77777 8.41499 4.752L6.92299 3.302C6.89258 3.27221 6.87108 3.23454 6.8609 3.19321C6.85071 3.15188 6.85225 3.10852 6.86534 3.06802C6.87842 3.02751 6.90254 2.99146 6.93498 2.9639C6.96742 2.93634 7.0069 2.91837 7.04899 2.912L9.10299 2.612C9.13963 2.60662 9.17442 2.59244 9.20437 2.57067C9.23433 2.5489 9.25856 2.52019 9.27499 2.487L10.193 0.625998C10.2119 0.587603 10.2411 0.555264 10.2774 0.532649C10.3138 0.510034 10.3557 0.498047 10.3985 0.498047C10.4413 0.498047 10.4832 0.510034 10.5195 0.532649C10.5558 0.555264 10.5851 0.587603 10.604 0.625998L10.605 0.626998Z" fill="#007EB1"/>
<path d="M17.4649 2.44901L18.3829 4.31001C18.3992 4.3433 18.4234 4.3721 18.4534 4.39389C18.4834 4.41568 18.5182 4.4298 18.5549 4.43501L20.6089 4.73501C20.651 4.74138 20.6905 4.75935 20.7229 4.78691C20.7554 4.81447 20.7795 4.85053 20.7926 4.89103C20.8057 4.93154 20.8072 4.97489 20.797 5.01622C20.7869 5.05755 20.7654 5.09522 20.7349 5.12501L19.2449 6.57201C19.2188 6.59763 19.1992 6.6292 19.1879 6.66403C19.1766 6.69885 19.1738 6.7359 19.1799 6.77201L19.5309 8.81801C19.5383 8.86001 19.5337 8.90324 19.5178 8.94278C19.5018 8.98232 19.475 9.01659 19.4406 9.04169C19.4061 9.06679 19.3653 9.08172 19.3227 9.08478C19.2802 9.08784 19.2377 9.07891 19.1999 9.05901L17.3649 8.09601C17.3322 8.07884 17.2959 8.06987 17.2589 8.06987C17.222 8.06987 17.1856 8.07884 17.1529 8.09601L15.3149 9.06201C15.2772 9.08191 15.2347 9.09084 15.1922 9.08778C15.1496 9.08472 15.1088 9.06979 15.0743 9.04469C15.0398 9.01959 15.0131 8.98532 14.9971 8.94578C14.9811 8.90624 14.9766 8.86301 14.9839 8.82101L15.3349 6.77501C15.3408 6.73891 15.3379 6.70193 15.3266 6.66715C15.3153 6.63236 15.2959 6.60078 15.2699 6.57501L13.7789 5.12301C13.7485 5.09322 13.727 5.05555 13.7169 5.01422C13.7067 4.97289 13.7082 4.92954 13.7213 4.88903C13.7344 4.84853 13.7585 4.81247 13.7909 4.78491C13.8234 4.75735 13.8629 4.73938 13.9049 4.73301L15.9589 4.43301C15.9956 4.42763 16.0304 4.41345 16.0603 4.39168C16.0903 4.36991 16.1145 4.3412 16.1309 4.30801L17.0489 2.44701C17.0679 2.40888 17.0972 2.3768 17.1334 2.35437C17.1696 2.33195 17.2113 2.32007 17.2539 2.32007C17.2965 2.32007 17.3383 2.33195 17.3745 2.35437C17.4107 2.3768 17.44 2.40888 17.4589 2.44701L17.4649 2.44901Z" fill="#007EB1"/>
<path d="M3.75098 2.44903L4.66898 4.31003C4.68527 4.34332 4.70946 4.37212 4.73944 4.39391C4.76943 4.4157 4.80429 4.42982 4.84098 4.43503L6.89498 4.73503C6.93707 4.7414 6.97655 4.75937 7.00899 4.78693C7.04143 4.81449 7.06555 4.85055 7.07863 4.89105C7.09172 4.93156 7.09326 4.97491 7.08307 5.01624C7.07289 5.05757 7.05139 5.09524 7.02098 5.12503L5.53598 6.57203C5.50982 6.59765 5.49024 6.62922 5.47893 6.66405C5.46761 6.69887 5.46488 6.73592 5.47098 6.77203L5.82198 8.81803C5.82935 8.86003 5.82478 8.90326 5.8088 8.9428C5.79283 8.98234 5.76608 9.01661 5.73161 9.04171C5.69713 9.06681 5.65631 9.08174 5.61377 9.0848C5.57124 9.08786 5.5287 9.07893 5.49098 9.05903L3.65598 8.09603C3.62329 8.07886 3.58691 8.06989 3.54998 8.06989C3.51305 8.06989 3.47668 8.07886 3.44398 8.09603L1.60598 9.06203C1.56827 9.08193 1.52573 9.09086 1.48319 9.0878C1.44066 9.08474 1.39983 9.06981 1.36536 9.04471C1.33088 9.01961 1.30414 8.98534 1.28816 8.9458C1.27219 8.90626 1.26762 8.86303 1.27498 8.82103L1.62598 6.77503C1.63183 6.73893 1.62898 6.70195 1.61768 6.66717C1.60638 6.63238 1.58694 6.6008 1.56098 6.57503L0.0689836 5.12403C0.0385781 5.09424 0.0170769 5.05657 0.00689372 5.01524C-0.00328947 4.97391 -0.00175167 4.93056 0.0113345 4.89005C0.0244207 4.84955 0.0485371 4.81349 0.080977 4.78593C0.113417 4.75837 0.152896 4.7404 0.194984 4.73403L2.24898 4.43403C2.2858 4.42881 2.32079 4.4147 2.35094 4.39292C2.38108 4.37114 2.40546 4.34235 2.42198 4.30903L3.33998 2.44803C3.3587 2.40959 3.38784 2.37718 3.42409 2.35451C3.46034 2.33185 3.50223 2.31982 3.54498 2.31982C3.58774 2.31982 3.62963 2.33185 3.66588 2.35451C3.70213 2.37718 3.73127 2.40959 3.74998 2.44803L3.75098 2.44903Z" fill="#007EB1"/>
<path d="M1.64199 13.1221H3.92699C4.02803 13.1221 4.12494 13.1622 4.19639 13.2337C4.26785 13.3051 4.30799 13.402 4.30799 13.5031V20.3571C4.30799 20.4581 4.26785 20.555 4.19639 20.6265C4.12494 20.6979 4.02803 20.7381 3.92699 20.7381H1.64199C1.54094 20.7381 1.44403 20.6979 1.37258 20.6265C1.30113 20.555 1.26099 20.4581 1.26099 20.3571V13.5031C1.26099 13.402 1.30113 13.3051 1.37258 13.2337C1.44403 13.1622 1.54094 13.1221 1.64199 13.1221Z" fill="#007EB1"/>
</g>
<defs>
<clipPath id="clip0_1_2031">
<rect width="20.8" height="21" fill="white" transform="translate(0 0.5)"/>
</clipPath>
</defs>
</svg>
