<svg width="13" height="12" viewBox="0 0 13 12" fill="none" xmlns="http://www.w3.org/2000/svg">
<path fill-rule="evenodd" clip-rule="evenodd" d="M0.0214844 6C0.0214844 3.60324 0.0214844 2.40486 0.592612 1.5417C0.847648 1.15626 1.17774 0.826164 1.56319 0.571128C2.42634 0 3.62472 0 6.02148 0C8.41824 0 9.61662 0 10.4798 0.571128C10.8652 0.826164 11.1953 1.15626 11.4504 1.5417C12.0215 2.40486 12.0215 3.60324 12.0215 6C12.0215 8.39676 12.0215 9.59514 11.4504 10.4583C11.1953 10.8437 10.8652 11.1738 10.4798 11.4289C9.61662 12 8.41824 12 6.02148 12C3.62472 12 2.42634 12 1.56319 11.4289C1.17774 11.1738 0.847648 10.8437 0.592612 10.4583C0.0214844 9.59514 0.0214844 8.39676 0.0214844 6ZM9.12765 6.00015C9.12765 7.7157 7.73693 9.10642 6.02138 9.10642C4.30583 9.10642 2.9151 7.7157 2.9151 6.00015C2.9151 4.2846 4.30583 2.89388 6.02138 2.89388C7.73693 2.89388 9.12765 4.2846 9.12765 6.00015ZM6.02138 8.05549C7.15651 8.05549 8.07671 7.13528 8.07671 6.00015C8.07671 4.86502 7.15651 3.94482 6.02138 3.94482C4.88625 3.94482 3.96604 4.86502 3.96604 6.00015C3.96604 7.13528 4.88625 8.05549 6.02138 8.05549ZM9.25033 3.4677C9.65344 3.4677 9.98022 3.14092 9.98022 2.73782C9.98022 2.33471 9.65344 2.00793 9.25033 2.00793C8.84723 2.00793 8.52045 2.33471 8.52045 2.73782C8.52045 3.14092 8.84723 3.4677 9.25033 3.4677Z" fill="#009DDC" style="fill:#009DDC;fill:color(display-p3 0.0000 0.6157 0.8627);fill-opacity:1;"/>
</svg>
