<svg width="23" height="23" viewBox="0 0 23 23" fill="none" xmlns="http://www.w3.org/2000/svg">
<path d="M16.625 0H6.125C4.50108 0.00173712 2.94417 0.647606 1.79589 1.79589C0.647606 2.94417 0.00173712 4.50108 0 6.125V16.625C0.00173712 18.2489 0.647606 19.8058 1.79589 20.9541C2.94417 22.1024 4.50108 22.7483 6.125 22.75H16.625C18.2489 22.7483 19.8058 22.1024 20.9541 20.9541C22.1024 19.8058 22.7483 18.2489 22.75 16.625V6.125C22.7483 4.50108 22.1024 2.94417 20.9541 1.79589C19.8058 0.647606 18.2489 0.00173712 16.625 0ZM11.375 16.625C10.3366 16.625 9.32161 16.3171 8.45826 15.7402C7.5949 15.1633 6.92199 14.3434 6.52463 13.3841C6.12727 12.4248 6.02331 11.3692 6.22588 10.3508C6.42845 9.33238 6.92846 8.39692 7.66269 7.66269C8.39692 6.92846 9.33238 6.42845 10.3508 6.22588C11.3692 6.02331 12.4248 6.12727 13.3841 6.52463C14.3434 6.92199 15.1633 7.5949 15.7402 8.45826C16.3171 9.32161 16.625 10.3366 16.625 11.375C16.6236 12.7669 16.07 14.1015 15.0857 15.0857C14.1015 16.07 12.7669 16.6236 11.375 16.625ZM17.9375 6.125C17.6779 6.125 17.4242 6.04802 17.2083 5.9038C16.9925 5.75958 16.8242 5.5546 16.7249 5.31477C16.6256 5.07494 16.5996 4.81104 16.6502 4.55644C16.7009 4.30184 16.8259 4.06798 17.0094 3.88442C17.193 3.70087 17.4268 3.57586 17.6814 3.52522C17.936 3.47458 18.1999 3.50057 18.4398 3.59991C18.6796 3.69925 18.8846 3.86747 19.0288 4.08331C19.173 4.29915 19.25 4.55291 19.25 4.8125C19.25 5.1606 19.1117 5.49444 18.8656 5.74058C18.6194 5.98672 18.2856 6.125 17.9375 6.125ZM14.875 11.375C14.875 12.0672 14.6697 12.7439 14.2851 13.3195C13.9006 13.8951 13.3539 14.3437 12.7144 14.6086C12.0749 14.8735 11.3711 14.9428 10.6922 14.8077C10.0133 14.6727 9.38961 14.3394 8.90013 13.8499C8.41064 13.3604 8.0773 12.7367 7.94225 12.0578C7.8072 11.3789 7.87651 10.6751 8.14142 10.0356C8.40633 9.39607 8.85493 8.84944 9.4305 8.46486C10.0061 8.08027 10.6828 7.875 11.375 7.875C12.3033 7.875 13.1935 8.24375 13.8499 8.90013C14.5063 9.5565 14.875 10.4467 14.875 11.375Z" fill="white" style="fill:white;fill-opacity:1;"/>
</svg>
