<svg width="13" height="12" viewBox="0 0 13 12" fill="none" xmlns="http://www.w3.org/2000/svg">
<path d="M0.0214844 1.61327C0.0214844 1.22846 0.156623 0.910998 0.42689 0.660886C0.697156 0.410762 1.04852 0.285706 1.48094 0.285706C1.90566 0.285706 2.24928 0.408834 2.51183 0.655114C2.7821 0.909082 2.91724 1.24 2.91724 1.6479C2.91724 2.01731 2.78597 2.32514 2.52341 2.57142C2.25315 2.82539 1.89793 2.95237 1.45778 2.95237H1.44619C1.02148 2.95237 0.677859 2.82539 0.415307 2.57142C0.152755 2.31745 0.0214844 1.99806 0.0214844 1.61327ZM0.172064 11.7143V4.00288H2.74349V11.7143H0.172064ZM4.1682 11.7143H6.73963V7.40836C6.73963 7.13899 6.77052 6.9312 6.83229 6.78498C6.9404 6.52331 7.1045 6.30205 7.32457 6.1212C7.54465 5.94034 7.82071 5.84992 8.15276 5.84992C9.01763 5.84992 9.45006 6.43096 9.45006 7.59306V11.7143H12.0215V7.29292C12.0215 6.15391 11.7512 5.29003 11.2107 4.70129C10.6701 4.11254 9.95585 3.81817 9.06782 3.81817C8.07168 3.81817 7.29562 4.2453 6.73963 5.09956V5.12264H6.72805L6.73963 5.09956V4.00288H4.1682C4.18364 4.24914 4.19137 5.01489 4.19137 6.30013C4.19137 7.58536 4.18364 9.39007 4.1682 11.7143Z" fill="#009DDC" style="fill:#009DDC;fill:color(display-p3 0.0000 0.6157 0.8627);fill-opacity:1;"/>
</svg>
