<svg width="16" height="22" viewBox="0 0 16 22" fill="none" xmlns="http://www.w3.org/2000/svg">
<path d="M7.99999 21.8332C7.74721 21.8332 7.53055 21.7609 7.34999 21.6165C7.16944 21.4721 7.03402 21.2825 6.94374 21.0478C6.60069 20.0366 6.16735 19.0887 5.64374 18.204C5.13818 17.3193 4.42499 16.2811 3.50416 15.0894C2.58332 13.8978 1.83402 12.7603 1.25624 11.6769C0.696518 10.5936 0.416656 9.28456 0.416656 7.74984C0.416656 5.63734 1.14791 3.84984 2.61041 2.38734C4.09096 0.906781 5.88749 0.166504 7.99999 0.166504C10.1125 0.166504 11.9 0.906781 13.3625 2.38734C14.843 3.84984 15.5833 5.63734 15.5833 7.74984C15.5833 9.39289 15.2674 10.7651 14.6354 11.8665C14.0215 12.9498 13.3083 14.0241 12.4958 15.0894C11.5208 16.3894 10.7805 17.4728 10.275 18.3394C9.78749 19.188 9.38124 20.0908 9.05624 21.0478C8.96596 21.3005 8.82152 21.4991 8.62291 21.6436C8.44235 21.77 8.23471 21.8332 7.99999 21.8332ZM7.99999 10.4582C8.75832 10.4582 9.3993 10.1964 9.92291 9.67275C10.4465 9.14914 10.7083 8.50817 10.7083 7.74984C10.7083 6.9915 10.4465 6.35053 9.92291 5.82692C9.3993 5.30331 8.75832 5.0415 7.99999 5.0415C7.24166 5.0415 6.60068 5.30331 6.07707 5.82692C5.55346 6.35053 5.29166 6.9915 5.29166 7.74984C5.29166 8.50817 5.55346 9.14914 6.07707 9.67275C6.60068 10.1964 7.24166 10.4582 7.99999 10.4582Z" fill="#009DDC" style="fill:#009DDC;fill:color(display-p3 0.0000 0.6157 0.8627);fill-opacity:1;"/>
</svg>
