<svg width="294" height="86" viewBox="0 0 294 86" fill="none" xmlns="http://www.w3.org/2000/svg">
<g clip-path="url(#clip0_2001_345)">
<path d="M0.779419 79.3492H6.19382C7.18887 79.3492 7.6498 79.4781 7.99599 79.8528C8.26107 80.1481 8.39955 80.6516 8.39955 81.3613C8.39955 82.4258 8.15425 82.8005 7.34713 82.9888C8.01577 83.1177 8.27294 83.4626 8.27294 84.2218V85.9286H7.48561V84.6758C7.50539 83.5419 7.22052 83.2644 6.07711 83.2743H1.56873V85.9286H0.781397V79.3492H0.779419ZM5.8872 82.6538C7.23635 82.6538 7.58056 82.3882 7.58056 81.3217C7.58056 80.2552 7.22646 80.0094 5.83774 80.0094H1.56477V82.6538H5.8872Z" fill="black" style="fill:black;fill-opacity:1;"/>
<path d="M24.4707 79.8825C24.894 80.3266 24.9929 80.84 24.9929 82.634C24.9929 84.428 24.894 84.9514 24.4707 85.3954C23.9682 85.9187 23.4657 85.998 20.7694 85.998C18.0731 85.998 17.5706 85.9187 17.0681 85.3954C16.6448 84.9514 16.5459 84.4379 16.5459 82.6439C16.5459 80.8499 16.6448 80.3166 17.0681 79.8825C17.5706 79.3592 18.0731 79.2799 20.809 79.2799C23.5449 79.2799 23.9682 79.3691 24.4707 79.8825ZM17.7091 80.3761C17.4341 80.6616 17.3649 81.1354 17.3649 82.6439C17.3649 84.1525 17.4341 84.6163 17.7091 84.9038C18.0434 85.2586 18.4569 85.3082 20.7714 85.3082C23.0859 85.3082 23.4974 85.2487 23.8337 84.9038C24.1087 84.6183 24.1779 84.1445 24.1779 82.6439C24.1779 81.1433 24.1087 80.6616 23.8337 80.3761C23.529 80.0411 22.9771 79.9717 20.811 79.9717C18.6448 79.9717 18.0256 80.0411 17.7111 80.3761H17.7091Z" fill="black" style="fill:black;fill-opacity:1;"/>
<path d="M41.0561 79.8825C41.4795 80.3266 41.5784 80.84 41.5784 82.634C41.5784 84.428 41.4795 84.9514 41.0561 85.3954C40.5537 85.9187 40.0512 85.998 37.3549 85.998C34.6585 85.998 34.1561 85.9187 33.6536 85.3954C33.2303 84.9514 33.1313 84.4379 33.1313 82.6439C33.1313 80.8499 33.2303 80.3166 33.6536 79.8825C34.1561 79.3592 34.6585 79.2799 37.3944 79.2799C40.1303 79.2799 40.5537 79.3691 41.0561 79.8825ZM34.2945 80.3761C34.0196 80.6616 33.9503 81.1354 33.9503 82.6439C33.9503 84.1525 34.0196 84.6163 34.2945 84.9038C34.6289 85.2586 35.0423 85.3082 37.3568 85.3082C39.6714 85.3082 40.0828 85.2487 40.4191 84.9038C40.6941 84.6183 40.7633 84.1445 40.7633 82.6439C40.7633 81.1433 40.6941 80.6616 40.4191 80.3761C40.1145 80.0411 39.5626 79.9717 37.3964 79.9717C35.2302 79.9717 34.6111 80.0411 34.2965 80.3761H34.2945Z" fill="black" style="fill:black;fill-opacity:1;"/>
<path d="M49.9146 79.3492H56.1954V80.0094H50.7019V82.2791H55.9086V82.9016H50.7019V85.9306H49.9146V79.3512V79.3492Z" fill="black" style="fill:black;fill-opacity:1;"/>
<path d="M64.1658 79.3492H64.9531V85.9286H64.1658V79.3492Z" fill="black" style="fill:black;fill-opacity:1;"/>
<path d="M73.4872 79.3492H74.7572L80.9589 85.3657V79.3492H81.7463V85.9286H80.4763L74.2745 79.9122V85.9286H73.4872V79.3492Z" fill="black" style="fill:black;fill-opacity:1;"/>
<path d="M98.3119 82.6836C98.3119 83.3992 98.298 83.8967 98.2723 84.1723C98.1932 85.0306 97.8984 85.5441 97.3366 85.7701C96.9133 85.9485 96.3119 85.9961 94.3139 85.9961C91.578 85.9961 91.0755 85.9168 90.573 85.3934C90.1497 84.9494 90.0508 84.436 90.0508 82.6419C90.0508 80.8479 90.1497 80.3246 90.573 79.8805C91.0854 79.3473 91.5483 79.2779 94.5493 79.2779C96.5671 79.2779 97.0992 79.3473 97.572 79.6724C98.025 79.9777 98.211 80.4217 98.2406 81.2801H97.4632C97.4434 80.6596 97.4039 80.4812 97.2179 80.3127C96.9034 80.0074 96.6165 79.9677 94.8262 79.9677C92.2367 79.9677 91.6769 80.0173 91.3307 80.2631C90.9568 80.5387 90.8678 80.9827 90.8678 82.6399C90.8678 84.1386 90.937 84.6223 91.212 84.8998C91.5265 85.2348 92.0092 85.3042 93.9776 85.3042C96.5374 85.3042 96.8816 85.2646 97.2159 84.8899C97.4612 84.6243 97.5107 84.3765 97.5403 83.3417H94.027V82.6816H98.3119V82.6836Z" fill="black" style="fill:black;fill-opacity:1;"/>
<path d="M123.105 85.1992C122.771 85.7721 122.179 85.9187 120.26 85.9187C117.869 85.9187 117.022 85.8593 116.579 85.6828C115.92 85.3974 115.633 84.8542 115.633 83.8571C115.633 82.525 116.057 82.0611 117.287 82.0115C116.668 81.6171 116.49 81.3415 116.49 80.7488C116.49 80.1561 116.678 79.7517 117.071 79.5158C117.386 79.3275 117.72 79.2799 118.696 79.2799C121.481 79.2799 121.815 79.3096 122.268 79.6446C122.642 79.9103 122.781 80.3246 122.781 81.1235V81.2622H121.944C121.944 80.0589 121.855 79.9995 119.906 79.9995C118.361 79.9995 118.074 80.0094 117.849 80.0391C117.475 80.1085 117.307 80.3345 117.307 80.7884C117.307 81.2424 117.435 81.401 118.282 81.8549L122.595 84.1327C122.644 83.9166 122.654 83.8075 122.654 83.5122C122.654 83.3437 122.644 83.0979 122.624 82.7232H123.471C123.481 82.9492 123.491 83.0979 123.491 83.2961C123.491 83.8095 123.461 84.0851 123.362 84.539L124.682 85.2289L124.474 85.9088L123.105 85.1992ZM117.819 82.408C117.287 82.4377 116.943 82.5468 116.747 82.7529C116.561 82.9591 116.472 83.3159 116.472 83.9364C116.472 84.4697 116.561 84.7452 116.796 84.9236C117.101 85.1496 117.968 85.2487 119.562 85.2487C121.394 85.2487 122.152 85.1199 122.347 84.7948L117.819 82.408Z" fill="black" style="fill:black;fill-opacity:1;"/>
<path d="M149.089 83.7203V83.9959C149.089 84.7848 149.01 85.1298 148.755 85.4271C148.509 85.7225 148.183 85.8613 147.584 85.9306C147.21 85.9604 146.088 86 145.202 86C142.83 86 142.248 85.9009 141.766 85.3974C141.342 84.9633 141.243 84.4399 141.243 82.6459C141.243 80.5942 141.382 80.0708 142.051 79.6466C142.553 79.3314 143.093 79.2819 145.801 79.2819C147.445 79.2819 148.017 79.3612 148.42 79.6565C148.864 79.9618 149.002 80.3761 149.032 81.4228H148.264V81.2543C148.264 80.0907 147.989 79.9717 145.232 79.9717C142.082 79.9717 142.062 79.9816 142.062 82.6459C142.062 84.1445 142.132 84.6183 142.407 84.9058C142.721 85.2309 143.224 85.3102 145.065 85.3102C148.019 85.3102 148.323 85.2011 148.323 84.097V83.7223H149.091H149.089V83.7203Z" fill="black" style="fill:black;fill-opacity:1;"/>
<path d="M157.289 79.3492H158.076V82.2296H164.228V79.3492H165.016V85.9286H164.228V82.8501H158.076V85.9286H157.289V79.3492Z" fill="black" style="fill:black;fill-opacity:1;"/>
<path d="M173.479 79.3492H174.266V85.9286H173.479V79.3492Z" fill="black" style="fill:black;fill-opacity:1;"/>
<path d="M182.8 79.3492H184.07L188.026 85.0108L191.993 79.3492H193.223V85.9286H192.436V79.9995L188.301 85.9286H187.72L183.585 79.9995V85.9286H182.798V79.3492H182.8Z" fill="black" style="fill:black;fill-opacity:1;"/>
<path d="M201.688 79.3492H202.958L209.16 85.3657V79.3492H209.947V85.9286H208.677L202.475 79.9122V85.9286H201.688V79.3492Z" fill="black" style="fill:black;fill-opacity:1;"/>
<path d="M218.479 79.3492H225.015V80.0094H219.267V82.2098H224.81V82.8302H219.267V85.2665H225.065V85.9267H218.479V79.3473V79.3492Z" fill="black" style="fill:black;fill-opacity:1;"/>
<path d="M239.927 79.3492H241.009L237.199 83.1672V85.9286H236.412V83.1672L232.602 79.3492H233.674L236.804 82.515L239.923 79.3492H239.927Z" fill="black" style="fill:black;fill-opacity:1;"/>
<path d="M8.1681 45.0963C8.1681 47.0925 9.60429 48.6804 11.3095 48.6804H31.6338C35.9444 48.6804 39.4379 52.1812 39.4379 56.5007V62.3605C39.4379 66.6801 35.9444 70.1809 31.6338 70.1809H2.34815C1.46784 70.1809 0.753704 69.4653 0.753704 68.5831V64.5609C0.753704 63.6788 1.46784 62.9632 2.34815 62.9632H28.3955C30.1007 62.9632 31.5369 61.3753 31.5369 59.4306C31.5369 57.486 30.1007 55.8466 28.3955 55.8466H9.42031C4.2611 55.8466 0 51.0354 0 45.0983C0 39.1612 4.2611 34.3481 9.42031 34.3481H36.8326C37.4874 34.3481 38.0175 34.8793 38.0175 35.5355V40.3248C38.0175 40.981 37.4874 41.5122 36.8326 41.5122H11.3095C9.60429 41.5122 8.1681 43.1497 8.1681 45.0963Z" fill="black" style="fill:black;fill-opacity:1;"/>
<path d="M49.1688 70.4664C44.8167 70.4664 43.79 66.6246 43.79 61.8947C43.79 57.1648 44.8167 53.2239 49.1688 53.2239H72.5752C72.5752 50.1037 71.1845 48.2225 69.4358 48.2225H47.3588C46.6525 48.2225 46.0788 47.6476 46.0788 46.9399V43.3856C46.0788 42.6779 46.6525 42.103 47.3588 42.103H69.4358C78.322 42.3012 79.6632 47.5584 79.6632 53.222V67.8715C79.6632 69.3027 78.5039 70.4644 77.0757 70.4644H49.1688V70.4664ZM51.6416 63.6194H72.5772V60.1701H51.6416C50.789 60.1701 51.1293 60.9095 51.1293 61.8947C51.1293 62.8799 50.789 63.6194 51.6416 63.6194Z" fill="black" style="fill:black;fill-opacity:1;"/>
<path d="M145.307 50.6766C145.307 44.4124 142.699 42.103 138.347 42.103H118.017C113.242 42.103 109.374 45.9824 109.374 50.7639V59.3474C109.374 65.0129 110.715 70.2681 119.602 70.4664H143.148C143.855 70.4664 144.428 69.8935 144.428 69.1838V65.6294C144.428 64.9198 143.855 64.3469 143.148 64.3469H119.602C117.853 64.3469 116.46 62.4676 116.46 59.3474H141.336C145.688 59.3474 145.305 55.4541 145.305 50.6766H145.307ZM119.902 48.1095H135.93C137.044 48.1095 137.946 49.0134 137.946 50.1295V53.1724C137.946 53.5213 137.663 53.8028 137.317 53.8028H116.46C116.46 49.6002 118.001 48.1075 119.902 48.1075V48.1095Z" fill="black" style="fill:black;fill-opacity:1;"/>
<path d="M293.905 31.9752L291.389 36.4137C291.078 36.9628 290.497 37.3017 289.867 37.3017H219.421C216.998 37.3017 214.673 36.3363 212.96 34.6196L209.257 30.9087L185.488 7.08885C184.497 6.09569 182.891 6.09569 181.902 7.08885L158.131 30.9087L154.428 34.6196C152.715 36.3363 150.391 37.3017 147.967 37.3017H97.8865C96.1813 37.3017 95.9459 39.0224 95.9459 41.1316V69.1877C95.9459 69.7349 95.5028 70.1789 94.9568 70.1789H89.9341C89.3881 70.1789 88.9449 69.7349 88.9449 69.1877V41.1316C88.9449 34.7505 90.759 30.9087 99.0418 30.9087H149.047L177.205 2.69399C180.79 -0.898012 186.6 -0.89603 190.183 2.69399L218.339 30.9087H293.286C293.832 30.9087 294.174 31.4994 293.905 31.9752Z" fill="black" style="fill:black;fill-opacity:1;"/>
<path d="M105.054 41.9067H83.6117C83.1321 41.9067 82.7433 42.2964 82.7433 42.777V47.598C82.7433 48.0787 83.1321 48.4683 83.6117 48.4683H105.054C105.533 48.4683 105.922 48.0787 105.922 47.598V42.777C105.922 42.2964 105.533 41.9067 105.054 41.9067Z" fill="black" style="fill:black;fill-opacity:1;"/>
<path d="M168.199 8.26636H159.674V10.1516H160.766V20.2318H167.107V10.1516H168.199V8.26636Z" fill="black" style="fill:black;fill-opacity:1;"/>
<path d="M213.884 70.4664C209.532 70.4664 208.505 66.6246 208.505 61.8947C208.505 57.1648 209.532 53.2239 213.884 53.2239H237.29C237.29 50.1037 235.899 48.2225 234.149 48.2225H212.072C211.366 48.2225 210.792 47.6476 210.792 46.9399V43.3856C210.792 42.6779 211.366 42.103 212.072 42.103H234.149C243.035 42.3012 244.376 47.5584 244.376 53.222V67.8715C244.376 69.3027 243.217 70.4644 241.789 70.4644H213.882H213.884V70.4664ZM216.357 63.6194H237.292V60.1701H216.357C215.504 60.1701 215.844 60.9095 215.844 61.8947C215.844 62.8799 215.504 63.6194 216.357 63.6194Z" fill="#0099CC" style="fill:#0099CC;fill:color(display-p3 0.0000 0.6000 0.8000);fill-opacity:1;"/>
<path d="M204.246 42.103C205.106 42.103 205.716 42.9415 205.455 43.7622L197.745 67.8675C197.629 68.2323 197.498 68.5712 197.356 68.8884C196.952 69.7765 196.058 70.3355 195.085 70.3355H186.703C185.668 70.3355 184.749 69.6774 184.412 68.6961L184.406 68.6763L177.665 47.9687C177.589 47.721 176.565 47.721 176.493 47.9687L169.75 68.6763L169.744 68.6941C169.407 69.6754 168.488 70.3335 167.453 70.3335H159.073C158.1 70.3335 157.208 69.7745 156.802 68.8864C156.658 68.5693 156.527 68.2303 156.41 67.8655L148.703 43.7602C148.44 42.9395 149.051 42.101 149.912 42.101H155.404C155.961 42.101 156.452 42.4658 156.616 42.999L162.861 63.3735C163.008 63.8097 163.227 64.3707 163.593 64.3707C164.108 64.3707 164.179 63.8711 164.325 63.435L170.846 43.4173C171.101 42.6303 171.835 42.099 172.66 42.099H181.504C182.327 42.099 183.059 42.6283 183.316 43.4113L189.906 63.435C190.052 63.8711 190.274 64.3707 190.638 64.3707C191.002 64.3707 191.223 63.8711 191.372 63.3735L197.554 43.003C197.716 42.4677 198.208 42.101 198.768 42.101H204.248H204.246V42.103Z" fill="#0099CC" style="fill:#0099CC;fill:color(display-p3 0.0000 0.6000 0.8000);fill-opacity:1;"/>
<path d="M286.961 42.3607C287.598 42.3607 287.998 43.0525 287.68 43.6056L267.769 78.2907L265.678 81.9342C264.58 83.8452 262.548 85.0207 260.35 85.0207H254.92C254.093 85.0207 253.421 84.3487 253.421 83.5201V79.7913C253.421 78.9627 254.091 78.2907 254.918 78.2907H258.018C258.934 78.2907 259.785 77.8109 260.257 77.0259L262.865 72.7084L264.74 69.602H263.221C261.925 69.602 260.73 68.9023 260.095 67.7704L246.542 43.6016C246.232 43.0486 246.631 42.3647 247.264 42.3647H254.071C254.38 42.3647 254.663 42.5351 254.805 42.8087L265.872 63.9246C266.283 64.7136 267.405 64.7255 267.834 63.9504L279.573 42.7928C279.719 42.5292 279.996 42.3666 280.297 42.3666H286.955L286.961 42.3607Z" fill="#0099CC" style="fill:#0099CC;fill:color(display-p3 0.0000 0.6000 0.8000);fill-opacity:1;"/>
<path d="M293.905 31.9732L291.389 36.4117C291.078 36.9608 290.497 37.2998 289.867 37.2998H228.208C225.975 37.2998 223.832 36.4097 222.252 34.8278L218.339 30.9067H293.286C293.834 30.9067 294.176 31.4974 293.905 31.9732Z" fill="#0099CC" style="fill:#0099CC;fill:color(display-p3 0.0000 0.6000 0.8000);fill-opacity:1;"/>
<path d="M188.98 22.0516H185.154V25.8854H188.98V22.0516Z" fill="#0099CC" style="fill:#0099CC;fill:color(display-p3 0.0000 0.6000 0.8000);fill-opacity:1;"/>
<path d="M183.827 22.0516H180.003V25.8854H183.827V22.0516Z" fill="#0099CC" style="fill:#0099CC;fill:color(display-p3 0.0000 0.6000 0.8000);fill-opacity:1;"/>
<path d="M188.98 27.2156H185.154V31.0494H188.98V27.2156Z" fill="#0099CC" style="fill:#0099CC;fill:color(display-p3 0.0000 0.6000 0.8000);fill-opacity:1;"/>
<path d="M183.827 27.2156H180.003V31.0494H183.827V27.2156Z" fill="#0099CC" style="fill:#0099CC;fill:color(display-p3 0.0000 0.6000 0.8000);fill-opacity:1;"/>
</g>
<defs>
<clipPath id="clip0_2001_345">
<rect width="294" height="86" fill="white" style="fill:white;fill-opacity:1;"/>
</clipPath>
</defs>
</svg>
