<svg width="17" height="17" viewBox="0 0 17 17" fill="none" xmlns="http://www.w3.org/2000/svg">
<path d="M15.8945 13.228C15.8945 13.4969 15.8348 13.7733 15.7078 14.0422C15.5808 14.311 15.4165 14.565 15.1999 14.804C14.8339 15.2074 14.4306 15.4987 13.9749 15.6854C13.5268 15.8721 13.0413 15.9692 12.5184 15.9692C11.7566 15.9692 10.9424 15.79 10.0835 15.424C9.22452 15.058 8.36556 14.565 7.51407 13.9451C6.65511 13.3176 5.84097 12.623 5.06417 11.8537C4.29484 11.0769 3.60021 10.2627 2.98026 9.41125C2.36779 8.55976 1.87482 7.70827 1.5163 6.86425C1.15778 6.01276 0.978516 5.19861 0.978516 4.42181C0.978516 3.91391 1.06815 3.42841 1.24741 2.98026C1.42667 2.52463 1.7105 2.10636 2.10637 1.7329C2.5844 1.26234 3.10724 1.03079 3.65996 1.03079C3.8691 1.03079 4.07824 1.07561 4.26497 1.16524C4.45917 1.25487 4.63096 1.38931 4.7654 1.58351L6.49826 4.02595C6.63271 4.21268 6.72981 4.38447 6.79703 4.54879C6.86425 4.70564 6.9016 4.8625 6.9016 5.00441C6.9016 5.18367 6.84931 5.36293 6.74474 5.53473C6.64764 5.70652 6.50573 5.88578 6.32647 6.06504L5.75881 6.65511C5.67665 6.73727 5.6393 6.83437 5.6393 6.95388C5.6393 7.01363 5.64677 7.06591 5.66171 7.12567C5.68412 7.18542 5.70652 7.23024 5.72146 7.27505C5.85591 7.52153 6.08745 7.84271 6.4161 8.23111C6.75221 8.61951 7.11073 9.01538 7.49913 9.41125C7.90247 9.80711 8.29087 10.1731 8.68674 10.5092C9.07514 10.8379 9.39631 11.0619 9.65026 11.1964C9.68761 11.2113 9.73243 11.2337 9.78471 11.2561C9.84446 11.2785 9.90422 11.286 9.97144 11.286C10.0984 11.286 10.1955 11.2412 10.2777 11.159L10.8453 10.5988C11.0321 10.4121 11.2113 10.2702 11.3831 10.1806C11.5549 10.076 11.7267 10.0237 11.9134 10.0237C12.0553 10.0237 12.2047 10.0536 12.3691 10.1208C12.5334 10.188 12.7052 10.2851 12.8919 10.4121L15.3642 12.1674C15.5584 12.3018 15.6929 12.4587 15.775 12.6454C15.8497 12.8321 15.8945 13.0189 15.8945 13.228Z" stroke="white" style="stroke:white;stroke-opacity:1;" stroke-miterlimit="10"/>
<path d="M13.3025 6.25924C13.3025 5.81109 12.9514 5.12392 12.4286 4.56373C11.9505 4.04836 11.3156 3.64502 10.6882 3.64502" stroke="white" style="stroke:white;stroke-opacity:1;" stroke-linecap="round" stroke-linejoin="round"/>
<path d="M15.9167 6.25924C15.9167 3.36865 13.5788 1.03079 10.6882 1.03079" stroke="white" style="stroke:white;stroke-opacity:1;" stroke-linecap="round" stroke-linejoin="round"/>
</svg>
