<svg width="25" height="25" viewBox="0 0 25 25" fill="none" xmlns="http://www.w3.org/2000/svg">
<g clip-path="url(#clip0_1_4754)">
<path d="M14.4061 9.625C15.0166 9.7441 15.5776 10.0427 16.0174 10.4825C16.4572 10.9223 16.7558 11.4833 16.8749 12.0937M14.4061 7.125C15.6744 7.2659 16.8571 7.83386 17.76 8.73563C18.663 9.6374 19.2324 10.8194 19.3749 12.0875M18.7499 17.075V18.95C18.7506 19.1241 18.7149 19.2964 18.6452 19.4558C18.5755 19.6153 18.4732 19.7585 18.3449 19.8762C18.2167 19.9938 18.0653 20.0834 17.9004 20.1392C17.7355 20.195 17.5608 20.2157 17.3874 20.2C15.4642 19.991 13.6168 19.3338 11.9936 18.2813C10.4835 17.3217 9.20323 16.0414 8.24365 14.5313C7.18738 12.9008 6.53005 11.0444 6.3249 9.1125C6.30928 8.93967 6.32982 8.76548 6.38521 8.60102C6.4406 8.43656 6.52963 8.28543 6.64663 8.15726C6.76362 8.0291 6.90603 7.92669 7.06477 7.85658C7.22351 7.78646 7.39511 7.75016 7.56865 7.75H9.44365C9.74696 7.74701 10.041 7.85442 10.271 8.05221C10.501 8.24999 10.6512 8.52465 10.6936 8.825C10.7728 9.42504 10.9196 10.0142 11.1311 10.5813C11.2152 10.805 11.2334 11.0481 11.1836 11.2818C11.1337 11.5155 11.0179 11.7301 10.8499 11.9L10.0561 12.6937C10.9459 14.2585 12.2414 15.554 13.8061 16.4437L14.5999 15.65C14.7698 15.482 14.9844 15.3662 15.2181 15.3163C15.4518 15.2665 15.6949 15.2847 15.9186 15.3687C16.4857 15.5803 17.0749 15.7271 17.6749 15.8063C17.9785 15.8491 18.2558 16.002 18.454 16.2359C18.6522 16.4699 18.7575 16.7685 18.7499 17.075Z" stroke="#F3F3F3" stroke-width="1.1" stroke-linecap="round" stroke-linejoin="round"/>
</g>
<circle cx="12.5" cy="12.5" r="12" stroke="white"/>
<defs>
<clipPath id="clip0_1_4754">
<rect width="15" height="15" fill="white" transform="translate(5 6.5)"/>
</clipPath>
</defs>
</svg>
