<svg width="21" height="21" viewBox="0 0 21 21" fill="none" xmlns="http://www.w3.org/2000/svg">
<path d="M12.7958 4.58317C13.6912 4.75786 14.514 5.19574 15.1591 5.84078C15.8041 6.48582 16.242 7.30866 16.4167 8.204M12.7958 0.916504C14.656 1.12315 16.3906 1.95616 17.7149 3.27876C19.0391 4.60136 19.8743 6.33493 20.0833 8.19484M19.1667 15.5098V18.2598C19.1677 18.5151 19.1154 18.7678 19.0131 19.0017C18.9109 19.2357 18.7608 19.4456 18.5727 19.6182C18.3846 19.7908 18.1625 19.9222 17.9207 20.004C17.6788 20.0858 17.4226 20.1161 17.1683 20.0932C14.3476 19.7867 11.6381 18.8228 9.25749 17.279C7.04267 15.8716 5.16488 13.9938 3.75749 11.779C2.2083 9.38761 1.24421 6.66492 0.943323 3.8315C0.920416 3.57802 0.950542 3.32253 1.03178 3.08133C1.11302 2.84012 1.2436 2.61847 1.41519 2.43049C1.58679 2.24251 1.79564 2.09232 2.02846 1.98948C2.26129 1.88664 2.51297 1.83341 2.76749 1.83317H5.51749C5.96235 1.82879 6.39363 1.98633 6.73094 2.27641C7.06824 2.56649 7.28856 2.96933 7.35082 3.40984C7.46689 4.2899 7.68215 5.154 7.99249 5.98567C8.11582 6.31377 8.14251 6.67034 8.0694 7.01314C7.99629 7.35595 7.82645 7.67061 7.57999 7.91984L6.41582 9.084C7.72075 11.3789 9.62091 13.2791 11.9158 14.584L13.08 13.4198C13.3292 13.1734 13.6439 13.0035 13.9867 12.9304C14.3295 12.8573 14.6861 12.884 15.0142 13.0073C15.8458 13.3177 16.7099 13.5329 17.59 13.649C18.0353 13.7118 18.4419 13.9361 18.7326 14.2792C19.0234 14.6223 19.1778 15.0603 19.1667 15.5098Z" fill="#009DDC" style="fill:#009DDC;fill:color(display-p3 0.0000 0.6157 0.8627);fill-opacity:1;"/>
</svg>
