<svg width="21" height="22" viewBox="0 0 21 22" fill="none" xmlns="http://www.w3.org/2000/svg">
<g clip-path="url(#clip0_1_2050)">
<path d="M10.3779 9.189H10.3869L14.6739 7.728C14.688 7.65286 14.6937 7.57639 14.6909 7.5C14.6929 7.42546 14.6811 7.35119 14.6559 7.281C14.5791 7.05887 14.4465 6.86018 14.2709 6.704V4.787C14.3344 4.34525 14.2711 3.89454 14.0884 3.48736C13.9057 3.08018 13.6111 2.73326 13.2389 2.487C12.9669 1.664 11.8389 0.5 9.62489 0.5C8.47709 0.561551 7.38745 1.02466 6.54656 1.80834C5.70566 2.59201 5.16704 3.64637 5.02489 4.787C5.02489 5.487 4.99889 6.038 4.97289 6.458C4.97289 6.545 4.96389 6.624 4.96389 6.694C4.77825 6.86675 4.64486 7.08815 4.57889 7.333C4.5674 7.38798 4.56071 7.44386 4.55889 7.5C4.60981 8.1147 4.75869 8.71731 4.99989 9.285C5.02712 9.35991 5.06899 9.42865 5.12308 9.4872C5.17716 9.54575 5.24237 9.59293 5.31489 9.626C5.32857 9.68904 5.33428 9.75354 5.33189 9.818C5.45288 10.6863 5.89278 11.4784 6.56589 12.04C6.52189 13.002 6.25089 13.667 5.86589 13.834L2.43589 14.971C1.95844 15.1291 1.52879 15.4056 1.18695 15.7745C0.845114 16.1434 0.602219 16.5929 0.480892 17.081L0.0178916 18.936C-0.00458165 19.0332 -0.00529861 19.1341 0.015792 19.2316C0.0368826 19.3292 0.0792596 19.4208 0.139892 19.5C0.20111 19.5786 0.279347 19.6423 0.368721 19.6863C0.458094 19.7303 0.556279 19.7534 0.655892 19.754H10.4649C10.194 19.4074 9.94832 19.0418 9.72989 18.66C9.09063 17.5405 8.75295 16.2742 8.74989 14.985V11.472C8.75068 10.9696 8.90771 10.4798 9.19922 10.0706C9.49073 9.66136 9.90229 9.35292 10.3769 9.188L10.3779 9.189Z" fill="#007EB1"/>
<path d="M20.555 10.85L15.961 9.28695C15.8243 9.23964 15.6757 9.23964 15.539 9.28695L10.945 10.85C10.8151 10.8938 10.7022 10.9773 10.6224 11.0887C10.5425 11.2002 10.4997 11.3339 10.5 11.471V14.987C10.5 19.278 15.29 21.364 15.494 21.451C15.5752 21.4852 15.6624 21.5028 15.7505 21.5028C15.8386 21.5028 15.9258 21.4852 16.007 21.451C16.207 21.364 21.001 19.278 21.001 14.987V11.469C21.0013 11.3319 20.9585 11.1982 20.8786 11.0867C20.7988 10.9753 20.6859 10.8918 20.556 10.848L20.555 10.85ZM18.626 14.168L16.22 17.23C16.1471 17.3227 16.0562 17.3998 15.9527 17.4565C15.8492 17.5132 15.7354 17.5485 15.6179 17.56C15.5005 17.5716 15.382 17.5593 15.2694 17.5239C15.1569 17.4885 15.0526 17.4307 14.963 17.354L13.43 16.04C13.2632 15.8864 13.1625 15.6742 13.1492 15.4479C13.1358 15.2216 13.2107 14.999 13.3582 14.8268C13.5057 14.6547 13.7142 14.5465 13.9399 14.5251C14.1656 14.5037 14.3907 14.5707 14.568 14.712L15.406 15.43L17.248 13.086C17.3938 12.9112 17.6019 12.8002 17.8282 12.7763C18.0545 12.7524 18.2811 12.8177 18.4601 12.9582C18.6391 13.0987 18.7564 13.3034 18.7869 13.5288C18.8175 13.7543 18.7591 13.9828 18.624 14.166L18.626 14.168Z" fill="#007EB1"/>
</g>
<defs>
<clipPath id="clip0_1_2050">
<rect width="21" height="21" fill="white" transform="translate(0 0.5)"/>
</clipPath>
</defs>
</svg>
