<svg width="101" height="100" viewBox="0 0 101 100" fill="none" xmlns="http://www.w3.org/2000/svg">
<circle cx="50.5" cy="50" r="48.5" fill="white" stroke="#009DDC" style="fill:white;fill-opacity:1;stroke:#009DDC;stroke:color(display-p3 0.0000 0.6157 0.8627);stroke-opacity:1;" stroke-width="3"/>
<path d="M71.0937 31.2188H41.5625C41.4378 31.2188 41.3153 31.2521 41.2077 31.3151C41.1001 31.3781 41.0112 31.4686 40.9501 31.5773L37.5919 37.5469H35.2344C34.5541 37.5453 33.8964 37.7909 33.3838 38.238C32.8711 38.6852 32.5383 39.3033 32.4474 39.9775C32.3566 40.6517 32.5137 41.3359 32.8897 41.9028C33.2656 42.4697 33.8348 42.8808 34.4912 43.0594L28.2938 54.0773C28.2337 54.1843 28.2026 54.3051 28.2036 54.4278C28.2047 54.5505 28.2378 54.6708 28.2997 54.7767C28.3616 54.8826 28.4502 54.9705 28.5566 55.0316C28.663 55.0927 28.7835 55.1249 28.9062 55.125H31.7187V67.7812H33.125V55.125H57.7344V67.7812H59.1406V55.125H70.3906V67.7812H71.7969V31.9219C71.7969 31.7354 71.7228 31.5566 71.5909 31.4247C71.4591 31.2928 71.2802 31.2188 71.0937 31.2188ZM69.8921 32.625L62.1155 46.4498C61.8564 46.0891 61.5154 45.795 61.1204 45.5919C60.7254 45.3887 60.2879 45.2822 59.8437 45.2812H51.0258L58.145 32.625H69.8921ZM61.25 48.0938C61.25 48.3719 61.1675 48.6438 61.013 48.875C60.8585 49.1063 60.6388 49.2865 60.3819 49.393C60.1249 49.4994 59.8422 49.5272 59.5694 49.473C59.2966 49.4187 59.046 49.2848 58.8494 49.0881C58.6527 48.8915 58.5188 48.6409 58.4645 48.3681C58.4102 48.0953 58.4381 47.8126 58.5445 47.5556C58.651 47.2986 58.8312 47.079 59.0625 46.9245C59.2937 46.77 59.5656 46.6875 59.8437 46.6875C60.2167 46.6875 60.5744 46.8357 60.8381 47.0994C61.1018 47.3631 61.25 47.7208 61.25 48.0938ZM57.4222 49.5H47.8906C47.5176 49.5 47.16 49.3518 46.8962 49.0881C46.6325 48.8244 46.4844 48.4667 46.4844 48.0938C46.4844 47.7208 46.6325 47.3631 46.8962 47.0994C47.16 46.8357 47.5176 46.6875 47.8906 46.6875H57.4222C57.1664 47.112 57.0312 47.5982 57.0312 48.0938C57.0312 48.5893 57.1664 49.0755 57.4222 49.5ZM41.9738 32.625H53.0171L49.5345 38.816C49.279 38.4267 48.9307 38.1069 48.5211 37.8854C48.1114 37.6639 47.6532 37.5476 47.1875 37.5469H39.2049L41.9738 32.625ZM48.5937 40.3594C48.5937 40.6375 48.5113 40.9094 48.3567 41.1406C48.2022 41.3719 47.9826 41.5521 47.7256 41.6586C47.4687 41.765 47.1859 41.7929 46.9131 41.7386C46.6403 41.6843 46.3898 41.5504 46.1931 41.3537C45.9964 41.1571 45.8625 40.9065 45.8083 40.6337C45.754 40.3609 45.7818 40.0782 45.8883 39.8212C45.9947 39.5643 46.175 39.3446 46.4062 39.1901C46.6375 39.0356 46.9093 38.9531 47.1875 38.9531C47.5604 38.9531 47.9181 39.1013 48.1818 39.365C48.4456 39.6287 48.5937 39.9864 48.5937 40.3594ZM33.8281 40.3594C33.8281 39.9864 33.9763 39.6287 34.24 39.365C34.5037 39.1013 34.8614 38.9531 35.2344 38.9531H44.7659C44.5101 39.3776 44.375 39.8638 44.375 40.3594C44.375 40.855 44.5101 41.3412 44.7659 41.7656H35.2344C34.8614 41.7656 34.5037 41.6175 34.24 41.3537C33.9763 41.09 33.8281 40.7323 33.8281 40.3594ZM58.0269 53.7188H30.1086L36.0408 43.1719H47.1875C47.8215 43.1705 48.4364 42.9549 48.9325 42.5602C49.4286 42.1654 49.7768 41.6146 49.9205 40.9971L54.6301 32.625H56.5327L49.4136 45.2812H47.8906C47.1447 45.2812 46.4293 45.5776 45.9019 46.105C45.3744 46.6325 45.0781 47.3478 45.0781 48.0938C45.0781 48.8397 45.3744 49.555 45.9019 50.0825C46.4293 50.6099 47.1447 50.9062 47.8906 50.9062H59.6089L58.0269 53.7188ZM70.3906 53.7188H63.199L70.3906 40.9338V53.7188ZM70.3906 38.0665L61.5861 53.7188H59.6391L61.5587 50.3065C61.8538 50.0781 62.1001 49.7928 62.283 49.4676C62.466 49.1424 62.5819 48.7838 62.6239 48.413L70.3906 34.6057V38.0665Z" fill="#009DDC" style="fill:#009DDC;fill:color(display-p3 0.0000 0.6157 0.8627);fill-opacity:1;"/>
<path d="M57.078 37.9055L54.3096 42.8271L55.5346 43.5162L58.303 38.5946L57.078 37.9055Z" fill="#009DDC" style="fill:#009DDC;fill:color(display-p3 0.0000 0.6157 0.8627);fill-opacity:1;"/>
<path d="M63.8898 35.7962L62.0435 39.0769L63.2684 39.7663L65.1147 36.4856L63.8898 35.7962Z" fill="#009DDC" style="fill:#009DDC;fill:color(display-p3 0.0000 0.6157 0.8627);fill-opacity:1;"/>
<path d="M45.8721 33.3742L44.5093 35.7958L45.7342 36.4851L47.097 34.0635L45.8721 33.3742Z" fill="#009DDC" style="fill:#009DDC;fill:color(display-p3 0.0000 0.6157 0.8627);fill-opacity:1;"/>
</svg>
