<svg width="101" height="100" viewBox="0 0 101 100" fill="none" xmlns="http://www.w3.org/2000/svg">
<circle cx="50.5" cy="50" r="48.5" fill="white" stroke="#003366" style="fill:white;fill-opacity:1;stroke:#003366;stroke:color(display-p3 0.0000 0.2000 0.4000);stroke-opacity:1;" stroke-width="3"/>
<path d="M68.886 30H32.1139C31.6739 30 31.3171 30.3568 31.3171 30.7968V63.0745C31.3171 66.8932 34.4239 69.9999 38.2426 69.9999C40.8986 69.9999 43.2099 68.4966 44.3713 66.2965C45.5327 68.4967 47.8439 70 50.4999 70C53.156 70 55.4672 68.4967 56.6286 66.2966C57.7901 68.4967 60.1013 70 62.7573 70C66.576 70 69.6828 66.8932 69.6828 63.0745V30.7968C69.6828 30.3568 69.326 30 68.886 30ZM43.5745 63.0745C43.5745 66.0145 41.1826 68.4064 38.2426 68.4064C35.3026 68.4064 32.9107 66.0145 32.9107 63.0745V56.7754C34.1821 58.3081 36.1002 59.2862 38.2426 59.2862C40.385 59.2862 42.3032 58.3083 43.5745 56.7754V63.0745ZM43.5745 52.3152V52.3605C43.5745 55.3005 41.1826 57.6924 38.2426 57.6924C35.3026 57.6924 32.9107 55.3005 32.9107 52.3605V52.3152V45.9708C34.1821 47.5036 36.1002 48.4816 38.2426 48.4816C40.385 48.4816 42.3032 47.5037 43.5745 45.9708V52.3152ZM43.5745 41.556C43.5745 44.496 41.1826 46.8879 38.2426 46.8879C35.3026 46.8879 32.9107 44.496 32.9107 41.556V31.5936H43.5745V41.556ZM55.8318 63.0745C55.8318 66.0145 53.4399 68.4064 50.4999 68.4064C47.5599 68.4064 45.1681 66.0145 45.1681 63.0745V56.7754C46.4394 58.3081 48.3575 59.2862 50.4999 59.2862C52.6424 59.2862 54.5605 58.3083 55.8318 56.7754V63.0745ZM55.8318 52.3153V52.3606C55.8318 55.3006 53.4399 57.6925 50.4999 57.6925C47.5599 57.6925 45.1681 55.3006 45.1681 52.3606V52.3153V45.9709C46.4394 47.5036 48.3575 48.4816 50.4999 48.4816C52.6424 48.4816 54.5605 47.5037 55.8318 45.9709V52.3153ZM55.8318 41.556C55.8318 44.496 53.4399 46.8879 50.4999 46.8879C47.5599 46.8879 45.1681 44.496 45.1681 41.556V31.5936H55.8318V41.556ZM68.0892 63.0745C68.0892 66.0145 65.6973 68.4064 62.7573 68.4064C59.8173 68.4064 57.4254 66.0145 57.4254 63.0745V56.7754C58.6967 58.3081 60.6149 59.2862 62.7573 59.2862C64.8997 59.2862 66.8178 58.3083 68.0892 56.7754V63.0745ZM68.0892 52.3153V52.3606C68.0892 55.3006 65.6973 57.6925 62.7573 57.6925C59.8173 57.6925 57.4254 55.3006 57.4254 52.3606V52.3153V45.9709C58.6967 47.5036 60.6149 48.4816 62.7573 48.4816C64.8997 48.4816 66.8178 47.5037 68.0892 45.9709V52.3153ZM68.0892 41.556C68.0892 44.496 65.6973 46.8879 62.7573 46.8879C59.8173 46.8879 57.4254 44.496 57.4254 41.556V31.5936H68.0892V41.556Z" fill="#003366" style="fill:#003366;fill:color(display-p3 0.0000 0.2000 0.4000);fill-opacity:1;"/>
<path d="M66.5956 32.4741C66.1556 32.4741 65.7988 32.8309 65.7988 33.2709V36.9362C65.7988 37.3762 66.1556 37.733 66.5956 37.733C67.0356 37.733 67.3924 37.3762 67.3924 36.9362V33.2709C67.3924 32.8309 67.0356 32.4741 66.5956 32.4741Z" fill="#003366" style="fill:#003366;fill:color(display-p3 0.0000 0.2000 0.4000);fill-opacity:1;"/>
<path d="M66.5956 38.5298C66.1556 38.5298 65.7988 38.8866 65.7988 39.3266V40.1234C65.7988 40.5634 66.1556 40.9202 66.5956 40.9202C67.0356 40.9202 67.3924 40.5634 67.3924 40.1234V39.3266C67.3924 38.8867 67.0356 38.5298 66.5956 38.5298Z" fill="#003366" style="fill:#003366;fill:color(display-p3 0.0000 0.2000 0.4000);fill-opacity:1;"/>
</svg>
