<svg width="13" height="10" viewBox="0 0 13 10" fill="none" xmlns="http://www.w3.org/2000/svg">
<path d="M8.03952 0.134241V0.13208H8.60219L8.80778 0.173141C8.94484 0.199799 9.06928 0.234733 9.18109 0.277956C9.29291 0.321178 9.40111 0.371608 9.5057 0.429234C9.61031 0.486861 9.70517 0.545578 9.7903 0.605366C9.8747 0.66444 9.95044 0.727112 10.0175 0.793383C10.0839 0.860378 10.1874 0.877667 10.3281 0.84525C10.4687 0.812833 10.6202 0.767806 10.7825 0.71018C10.9448 0.652554 11.1054 0.58772 11.264 0.515679C11.4228 0.443638 11.5194 0.397898 11.554 0.378448C11.5879 0.358285 11.606 0.347479 11.6082 0.346031L11.6103 0.342789L11.6211 0.337387L11.6319 0.331984L11.6428 0.326581L11.6536 0.321178L11.6557 0.317936L11.659 0.315775L11.6623 0.313614L11.6644 0.310373L11.6752 0.307131L11.686 0.30497L11.6839 0.321178L11.6806 0.337387L11.6752 0.353595L11.6698 0.369803L11.6644 0.380609L11.659 0.391415L11.6536 0.407623C11.65 0.418429 11.6464 0.432832 11.6428 0.450845C11.6392 0.468858 11.6049 0.540889 11.54 0.666957C11.475 0.793027 11.3939 0.920889 11.2965 1.05056C11.1991 1.18022 11.1118 1.27819 11.0347 1.34447C10.9568 1.41146 10.9052 1.45828 10.8799 1.48494C10.8547 1.51231 10.824 1.53752 10.7879 1.56058L10.7338 1.59624L10.723 1.60164L10.7122 1.60705L10.71 1.61029L10.7068 1.61245L10.7035 1.61461L10.7014 1.61785L10.6906 1.62325L10.6797 1.62866L10.6776 1.6319L10.6743 1.63406L10.6711 1.63622L10.6689 1.63946L10.6668 1.6427L10.6635 1.64486L10.6603 1.64703L10.6581 1.65027H10.7122L11.0152 1.58543C11.2172 1.54221 11.4101 1.48999 11.5941 1.42875L11.8862 1.3315L11.9187 1.3207L11.9349 1.31529L11.9457 1.30989L11.9566 1.30449L11.9674 1.29909L11.9782 1.29368L11.9998 1.29044L12.0215 1.28828V1.30989L12.0161 1.31205L12.0107 1.31529L12.0085 1.31854L12.0053 1.3207L12.002 1.32286L11.9998 1.3261L11.9977 1.32934L11.9944 1.3315L11.9912 1.33366L11.989 1.33691L11.9869 1.34015L11.9836 1.34231L11.9782 1.35311L11.9728 1.36392L11.9695 1.36608C11.9681 1.36824 11.9223 1.42947 11.8321 1.54978C11.742 1.6708 11.6933 1.73202 11.686 1.73347C11.6788 1.73563 11.6687 1.74644 11.6557 1.76589C11.6435 1.78605 11.567 1.86638 11.4264 2.00685C11.2857 2.14733 11.1479 2.2723 11.013 2.38181C10.8774 2.49202 10.8089 2.62745 10.8074 2.7881C10.8053 2.94802 10.797 3.12884 10.7825 3.33054C10.7681 3.53225 10.7411 3.75015 10.7014 3.98428C10.6617 4.2184 10.6004 4.48314 10.5174 4.77849C10.4345 5.07384 10.3335 5.36199 10.2145 5.64294C10.0954 5.92388 9.97099 6.17601 9.84114 6.39933C9.7113 6.62265 9.59227 6.81175 9.48406 6.96663C9.37586 7.1215 9.26586 7.26738 9.15404 7.40425C9.04223 7.54113 8.90085 7.69529 8.72988 7.86673C8.55819 8.03746 8.46442 8.13111 8.44855 8.14768C8.43196 8.16353 8.36127 8.2226 8.23645 8.32489C8.11238 8.4279 7.97892 8.53091 7.83609 8.63393C7.69399 8.73623 7.56341 8.82159 7.44439 8.89002C7.32536 8.95846 7.18182 9.03661 7.01373 9.12451C6.84638 9.21311 6.66531 9.29523 6.47054 9.37087C6.27577 9.44651 6.07018 9.51675 5.85377 9.58158C5.63735 9.64642 5.42816 9.69685 5.22617 9.73286C5.0242 9.76888 4.79516 9.7995 4.53907 9.82471L4.15494 9.86253V9.86793H3.4516V9.86253L3.35963 9.85712C3.29832 9.85353 3.24782 9.84992 3.20814 9.84632C3.16847 9.84272 3.01878 9.8229 2.75909 9.78689C2.49939 9.75087 2.29561 9.71485 2.14772 9.67883C1.99985 9.64282 1.77983 9.57437 1.48767 9.47353C1.19552 9.37268 0.94556 9.27074 0.737805 9.16773C0.530776 9.06543 0.400929 9.0006 0.348265 8.97323C0.296327 8.94657 0.237896 8.91344 0.172972 8.87381L0.0755872 8.81438L0.0734339 8.81114L0.0701769 8.80898L0.0669307 8.80682L0.0647666 8.80358L0.0539461 8.79817L0.0431255 8.79277L0.0409722 8.78953L0.0377152 8.78737L0.034469 8.78521L0.0323049 8.78197L0.0301516 8.77873L0.0268947 8.77656H0.0214844V8.75495L0.0323049 8.75711L0.0431255 8.76036L0.091818 8.76576C0.12428 8.76936 0.212651 8.77476 0.356922 8.78197C0.501203 8.78917 0.654487 8.78917 0.816795 8.78197C0.979104 8.77476 1.14503 8.75855 1.31454 8.73334C1.48407 8.70813 1.68425 8.66491 1.91508 8.60367C2.14593 8.54244 2.35801 8.46968 2.55134 8.3854C2.74395 8.3004 2.881 8.23701 2.96252 8.19522C3.04331 8.15416 3.16666 8.0778 3.33258 7.96614L3.58145 7.79866L3.58361 7.79542L3.58686 7.79325L3.59012 7.79109L3.59227 7.78785L3.59443 7.78461L3.59768 7.78245L3.60094 7.78029L3.60309 7.77705L3.61391 7.7738L3.62473 7.77164L3.62689 7.76084L3.63014 7.75003L3.6334 7.74787L3.63555 7.74463L3.54899 7.73923C3.49128 7.73563 3.43537 7.73202 3.38127 7.72842C3.32717 7.72482 3.24241 7.70861 3.12698 7.6798C3.01157 7.65098 2.88714 7.60775 2.75368 7.55013C2.62023 7.4925 2.49038 7.42406 2.36414 7.34482C2.2379 7.26558 2.14664 7.19966 2.09038 7.14708C2.03483 7.0952 1.96269 7.02173 1.87396 6.92664C1.78596 6.83084 1.70949 6.7325 1.64457 6.63165C1.57964 6.5308 1.51761 6.41445 1.45847 6.28263L1.36864 6.08597L1.36323 6.06976L1.35782 6.05355L1.35458 6.04275L1.35241 6.03194L1.36864 6.0341L1.38487 6.03734L1.5039 6.05355C1.58326 6.06436 1.7077 6.06796 1.87721 6.06436C2.04674 6.06076 2.16396 6.05355 2.22888 6.04275C2.2938 6.03194 2.33348 6.02473 2.3479 6.02113L2.36955 6.01573L2.3966 6.01033L2.42365 6.00493L2.42581 6.00168L2.42906 5.99952L2.43232 5.99736L2.43447 5.99412L2.41283 5.98872L2.39119 5.98331L2.36955 5.97791L2.3479 5.97251L2.32626 5.96711C2.31184 5.96351 2.2866 5.9563 2.25052 5.9455C2.21445 5.93469 2.11707 5.89507 1.95836 5.82663C1.79967 5.7582 1.67343 5.69156 1.57964 5.62673C1.48563 5.56171 1.39599 5.4906 1.3113 5.41386C1.22689 5.33606 1.13421 5.23592 1.03321 5.11346C0.932218 4.991 0.842051 4.84873 0.762693 4.68664C0.683345 4.52456 0.623832 4.36968 0.584153 4.222C0.544634 4.07519 0.518561 3.92509 0.506256 3.77357L0.486768 3.54665L0.497589 3.54881L0.50841 3.55205L0.51923 3.55746L0.530051 3.56286L0.540871 3.56826L0.551692 3.57367L0.71941 3.6493C0.83123 3.69973 0.97009 3.74296 1.136 3.77897C1.30192 3.81499 1.40111 3.8348 1.43357 3.8384L1.48226 3.84381H1.57964L1.57749 3.84056L1.57423 3.8384L1.57099 3.83624L1.56882 3.833L1.56667 3.82976L1.56341 3.8276L1.56017 3.82544L1.558 3.82219L1.54718 3.81679L1.53636 3.81139L1.53421 3.80815L1.53095 3.80599L1.52771 3.80382L1.52554 3.80058L1.51472 3.79518L1.5039 3.78978L1.50175 3.78654C1.49958 3.78509 1.46856 3.76204 1.40868 3.71738C1.34952 3.672 1.28749 3.61329 1.22257 3.54125C1.15764 3.46921 1.09272 3.39357 1.0278 3.31433C0.962753 3.23491 0.904821 3.14994 0.854667 3.0604C0.804179 2.97036 0.75079 2.85581 0.694523 2.71678C0.638981 2.57847 0.596781 2.43908 0.567923 2.2986C0.539075 2.15813 0.522844 2.01946 0.51923 1.88259C0.515627 1.74571 0.51923 1.62866 0.530051 1.53141C0.540871 1.43416 0.562512 1.32429 0.594974 1.20183C0.627436 1.07938 0.674332 0.949708 0.735641 0.812833L0.827616 0.607527L0.833026 0.591318L0.838437 0.57511L0.841694 0.572949L0.843847 0.569707L0.846011 0.566465L0.849257 0.564304L0.852514 0.566465L0.854667 0.569707L0.856831 0.572949L0.860078 0.57511L0.863335 0.577271L0.865488 0.580513L0.867652 0.583754L0.870898 0.585915L0.876309 0.596721L0.881719 0.607527L0.884976 0.609688L0.887129 0.612929L1.03321 0.775014C1.13059 0.88307 1.24601 1.00374 1.37946 1.137C1.51293 1.27027 1.58686 1.33942 1.60129 1.34447C1.61572 1.35023 1.63375 1.36679 1.65539 1.39417C1.67703 1.42083 1.74917 1.48459 1.8718 1.58543C1.99444 1.68628 2.15494 1.80335 2.35331 1.93662C2.5517 2.06988 2.77171 2.20135 3.01337 2.33102C3.25504 2.46069 3.51473 2.57774 3.79245 2.6822C4.07018 2.78666 4.26495 2.85509 4.37676 2.88751C4.48858 2.91993 4.67974 2.96134 4.95025 3.01177C5.22076 3.0622 5.42456 3.09462 5.56161 3.10902C5.69867 3.12343 5.79246 3.13172 5.84295 3.13388L5.91869 3.13604L5.91654 3.11983L5.91328 3.10362L5.89164 2.96855C5.87721 2.87851 5.87 2.75244 5.87 2.59036C5.87 2.42827 5.88262 2.2788 5.90787 2.14192C5.93312 2.00505 5.971 1.86638 6.02148 1.72591C6.07198 1.58543 6.1214 1.47269 6.16973 1.38769C6.21879 1.30341 6.28298 1.20724 6.36233 1.09918C6.44169 0.991126 6.54449 0.879471 6.67072 0.764208C6.79696 0.648945 6.94123 0.546291 7.10354 0.456248C7.26585 0.366205 7.41554 0.297762 7.55259 0.250942C7.68966 0.204121 7.80508 0.173498 7.89885 0.159094C7.99263 0.14469 8.03952 0.136402 8.03952 0.134241Z" fill="#009DDC" style="fill:#009DDC;fill:color(display-p3 0.0000 0.6157 0.8627);fill-opacity:1;"/>
</svg>
