<svg width="14" height="10" viewBox="0 0 14 10" fill="none" xmlns="http://www.w3.org/2000/svg">
<path d="M7.31383 9.65328L4.6057 9.60267C3.72886 9.58503 2.84985 9.62024 1.99021 9.43752C0.682501 9.16451 0.589858 7.82591 0.492918 6.70308C0.359343 5.12452 0.411054 3.51731 0.663126 1.95192C0.80543 1.07358 1.36545 0.549465 2.2315 0.492432C5.15507 0.285448 8.09808 0.309978 11.0152 0.406543C11.3232 0.415396 11.6334 0.46378 11.9372 0.518854C13.4368 0.787466 13.4733 2.3044 13.5705 3.58137C13.6675 4.87152 13.6266 6.16829 13.4413 7.44965C13.2926 8.51058 13.0082 9.40028 11.808 9.48617C10.3041 9.59848 8.83479 9.6889 7.32672 9.66011C7.32679 9.65328 7.31812 9.65328 7.31383 9.65328ZM5.72171 6.9673C6.85498 6.30236 7.96662 5.6485 9.09341 4.98802C7.95803 4.32308 6.8485 3.66922 5.72171 3.00873V6.9673Z" fill="#009DDC" style="fill:#009DDC;fill:color(display-p3 0.0000 0.6157 0.8627);fill-opacity:1;"/>
</svg>
