<svg width="24" height="19" viewBox="0 0 24 19" fill="none" xmlns="http://www.w3.org/2000/svg">
<path d="M11.9513 0C12.5743 0.0035 14.133 0.0186666 15.7897 0.0851666L16.3777 0.110833C18.0448 0.189 19.7108 0.324333 20.538 0.554167C21.6405 0.8645 22.5062 1.7675 22.799 2.91317C23.2657 4.73317 23.324 8.28217 23.331 9.142L23.3322 9.31933V9.52233C23.324 10.3822 23.2657 13.9323 22.799 15.7512C22.5027 16.9003 21.6358 17.8045 20.538 18.1102C19.7108 18.34 18.0448 18.4753 16.3777 18.5535L15.7897 18.5803C14.133 18.6457 12.5743 18.662 11.9513 18.6643L11.6772 18.6655H11.3797C10.0613 18.6573 4.54767 18.5978 2.793 18.1102C1.69167 17.7998 0.824833 16.8968 0.532 15.7512C0.0653334 13.9312 0.007 10.3822 0 9.52233V9.142C0.007 8.28217 0.0653334 4.732 0.532 2.91317C0.828333 1.764 1.69517 0.859833 2.79417 0.555333C4.54767 0.0664998 10.0625 0.007 11.3808 0H11.9513ZM9.33217 5.25V13.4167L16.3322 9.33333L9.33217 5.25Z" fill="white" style="fill:white;fill-opacity:1;"/>
</svg>
